<svg width="107" height="43" viewBox="0 0 107 43" fill="none" xmlns="http://www.w3.org/2000/svg">
<path d="M15.778 33.334L0.69 29.24L2.392 22.616L3.542 22.938V9.46H9.016L2.576 7.712L4.416 0.995999L21.896 5.78V28.044H17.158L15.778 33.334ZM10.488 24.134H7.912L14.95 26.066V11.07L10.488 9.874V24.134ZM36.6257 33.288L23.2857 29.654L24.0677 26.71V13.968H28.0697L27.2417 13.278L31.7037 7.942L40.2597 15.21L35.7977 20.5L36.5337 23.168L31.2437 24.64L38.4197 26.572L36.6257 33.288ZM31.0137 16.498V19.534L33.7277 18.798L31.0137 16.498ZM42.1648 23.858V13.968H45.7988L47.1788 8.54L60.8408 12.128L59.0928 18.89L58.1728 18.66V35.542L56.3328 42.258L43.5448 38.762L45.3848 32L51.2268 33.61V29.194L50.4448 32.138L41.6588 29.746L43.2228 23.858H42.1648ZM49.1108 23.858H46.4888L51.2268 25.146V16.774L49.1108 16.222V23.858ZM70.329 32L62.233 29.792L63.659 24.456V16.82L62.233 16.452L64.027 9.736L70.789 11.576L71.295 9.736L76.815 11.254L75.021 17.97L70.605 16.774V24.87L72.123 25.284L70.329 32ZM91.2956 33.288L77.9556 29.654L78.7376 26.71V13.968H82.7396L81.9116 13.278L86.3736 7.942L94.9296 15.21L90.4676 20.5L91.2036 23.168L85.9136 24.64L93.0896 26.572L91.2956 33.288ZM85.6836 16.498V19.534L88.3976 18.798L85.6836 16.498ZM104.425 32L96.3287 29.792L97.7547 24.456V16.82L96.3287 16.452L98.1227 9.736L106.219 11.944L104.701 17.648V24.87L106.219 25.284L104.425 32ZM103.965 8.908L97.1567 7.022L98.4907 2.238L105.299 4.124L103.965 8.908Z" fill="black"/>
</svg>
