<svg width="165" height="35" viewBox="0 0 165 35" fill="none" xmlns="http://www.w3.org/2000/svg">
<path d="M8.96 34H1.83C1.24733 34 0.818 33.8773 0.542 33.632C0.296667 33.356 0.174 32.9267 0.174 32.344V2.536C0.174 1.95333 0.296667 1.53933 0.542 1.294C0.818 1.018 1.24733 0.879999 1.83 0.879999H8.96C9.54267 0.879999 9.95667 1.018 10.202 1.294C10.478 1.53933 10.616 1.95333 10.616 2.536V12.518H18.298V2.536C18.298 1.95333 18.4207 1.53933 18.666 1.294C18.942 1.018 19.3713 0.879999 19.954 0.879999H27.084C27.6667 0.879999 28.0807 1.018 28.326 1.294C28.602 1.53933 28.74 1.95333 28.74 2.536V32.344C28.74 32.9267 28.602 33.356 28.326 33.632C28.0807 33.8773 27.6667 34 27.084 34H19.954C19.3713 34 18.942 33.8773 18.666 33.632C18.4207 33.356 18.298 32.9267 18.298 32.344V22.132H10.616V32.344C10.616 32.9267 10.478 33.356 10.202 33.632C9.95667 33.8773 9.54267 34 8.96 34ZM51.8683 34H44.4163C43.8336 34 43.4043 33.8773 43.1283 33.632C42.883 33.356 42.7603 32.9267 42.7603 32.344V26.456L35.7223 17.026C35.017 16.0753 34.5416 15.2473 34.2963 14.542C34.0816 13.8367 33.9743 12.7787 33.9743 11.368V2.536C33.9743 1.95333 34.097 1.53933 34.3423 1.294C34.6183 1.018 35.0476 0.879999 35.6303 0.879999H42.7143C43.297 0.879999 43.711 1.018 43.9563 1.294C44.2323 1.53933 44.3703 1.95333 44.3703 2.536V10.08C44.3703 10.3867 44.3856 10.7087 44.4163 11.046C44.447 11.3833 44.5696 11.7053 44.7843 12.012L46.9003 15.324C47.0536 15.6 47.207 15.7993 47.3603 15.922C47.5443 16.0447 47.759 16.106 48.0043 16.106H48.4643C48.7096 16.106 48.909 16.0447 49.0623 15.922C49.2463 15.7993 49.415 15.6 49.5683 15.324L51.6843 12.012C51.899 11.7053 52.0216 11.3833 52.0523 11.046C52.083 10.7087 52.0983 10.3867 52.0983 10.08V2.536C52.0983 1.95333 52.221 1.53933 52.4663 1.294C52.7423 1.018 53.1716 0.879999 53.7543 0.879999H60.6083C61.191 0.879999 61.605 1.018 61.8503 1.294C62.1263 1.53933 62.2643 1.95333 62.2643 2.536V11.368C62.2643 12.7787 62.1416 13.8367 61.8963 14.542C61.651 15.2473 61.191 16.0753 60.5163 17.026L53.5243 26.502V32.344C53.5243 32.9267 53.3863 33.356 53.1103 33.632C52.865 33.8773 52.451 34 51.8683 34ZM95.7099 25.306C95.7099 26.7167 95.4952 28.0047 95.0659 29.17C94.6672 30.3047 93.9312 31.286 92.8579 32.114C91.8152 32.9113 90.3739 33.54 88.5339 34C86.6939 34.46 84.3479 34.69 81.4959 34.69C78.6439 34.69 76.2979 34.46 74.4579 34C72.6179 33.54 71.1612 32.9113 70.0879 32.114C69.0452 31.286 68.3092 30.3047 67.8799 29.17C67.4812 28.0047 67.2819 26.7167 67.2819 25.306V2.536C67.2819 1.95333 67.4046 1.53933 67.6499 1.294C67.9259 1.018 68.3552 0.879999 68.9379 0.879999H76.1599C76.7426 0.879999 77.1566 1.018 77.4019 1.294C77.6779 1.53933 77.8159 1.95333 77.8159 2.536V23.512C77.8159 24.1253 78.0459 24.6467 78.5059 25.076C78.9659 25.4747 79.9932 25.674 81.5879 25.674C83.2132 25.674 84.2559 25.4747 84.7159 25.076C85.1759 24.6467 85.4059 24.1253 85.4059 23.512V2.536C85.4059 1.95333 85.5286 1.53933 85.7739 1.294C86.0499 1.018 86.4792 0.879999 87.0619 0.879999H94.0539C94.6366 0.879999 95.0506 1.018 95.2959 1.294C95.5719 1.53933 95.7099 1.95333 95.7099 2.536V25.306ZM110.388 34H103.488C102.906 34 102.476 33.8773 102.2 33.632C101.955 33.356 101.832 32.9267 101.832 32.344V2.536C101.832 1.95333 101.955 1.53933 102.2 1.294C102.476 1.018 102.906 0.879999 103.488 0.879999H108.272C108.855 0.879999 109.346 0.971998 109.744 1.156C110.174 1.34 110.588 1.662 110.986 2.122L119.91 12.334V2.536C119.91 1.95333 120.033 1.53933 120.278 1.294C120.554 1.018 120.984 0.879999 121.566 0.879999H128.466C129.049 0.879999 129.463 1.018 129.708 1.294C129.984 1.53933 130.122 1.95333 130.122 2.536V32.344C130.122 32.9267 129.984 33.356 129.708 33.632C129.463 33.8773 129.049 34 128.466 34H121.566C120.984 34 120.554 33.8773 120.278 33.632C120.033 33.356 119.91 32.9267 119.91 32.344V26.686L112.044 17.164V32.344C112.044 32.9267 111.906 33.356 111.63 33.632C111.385 33.8773 110.971 34 110.388 34ZM153.625 34H138.123C137.54 34 137.111 33.8773 136.835 33.632C136.59 33.356 136.467 32.9267 136.467 32.344V2.536C136.467 1.95333 136.59 1.53933 136.835 1.294C137.111 1.018 137.54 0.879999 138.123 0.879999H153.625C157.458 0.879999 160.295 1.64667 162.135 3.18C164.006 4.71333 164.941 7.07467 164.941 10.264V24.616C164.941 27.8053 164.006 30.1667 162.135 31.7C160.295 33.2333 157.458 34 153.625 34ZM146.909 9.666V25.306H152.383C153.119 25.306 153.656 25.122 153.993 24.754C154.361 24.386 154.545 23.8187 154.545 23.052V11.874C154.545 11.1073 154.361 10.5553 153.993 10.218C153.656 9.85 153.119 9.666 152.383 9.666H146.909Z" fill="black"/>
</svg>
