<svg width="135" height="37" viewBox="0 0 135 37" fill="none" xmlns="http://www.w3.org/2000/svg">
<path d="M17.86 10.046H15.1V18.648H15.468L17.768 21.408V24.766C16.572 24.766 15.79 24.9807 15.422 25.41C15.0847 25.8393 14.916 26.5293 14.916 27.48V28.17C15.1307 28.17 15.3147 28.0473 15.468 27.802L16.756 28.63L19.056 31.39C18.872 32.8313 18.3507 33.92 17.492 34.656C16.6333 35.392 15.5907 35.76 14.364 35.76C13.168 35.76 11.9873 35.346 10.822 34.518C9.65667 35.346 8.44533 35.76 7.188 35.76C5.96133 35.76 4.55067 35.024 2.956 33.552C1.36133 32.08 0.472 30.4393 0.288 28.63L1.576 27.802C1.69867 28.078 1.99 28.216 2.45 28.216C3.76867 28.216 4.428 27.066 4.428 24.766H3.876L1.576 22.006V18.648C2.83333 18.648 3.72267 18.694 4.244 18.786V10.046H3.876L1.576 7.286V0.799998H15.56L17.86 3.56V10.046ZM6.82 20.166C7.12667 19.982 7.49467 19.614 7.924 19.062H9.12C9.51867 19.614 9.88667 19.982 10.224 20.166C10.5307 19.7367 10.9293 19.3993 11.42 19.154V5.998H14.272V2.088H2.864V5.998H5.624V19.154C6.05333 19.3687 6.452 19.706 6.82 20.166ZM8.66 30.194C9.764 31.1447 10.9753 31.62 12.294 31.62C13.6433 31.62 14.6247 30.8533 15.238 29.32C15.0233 29.4427 14.778 29.504 14.502 29.504C12.3553 29.504 11.282 27.9247 11.282 24.766C11.282 22.19 12.294 20.902 14.318 20.902V19.752C13.7353 19.752 13.2907 19.7827 12.984 19.844C12.6773 19.8747 12.294 20.0587 11.834 20.396C11.374 20.7333 10.96 21.2393 10.592 21.914C9.856 21.7607 9.166 21.224 8.522 20.304C7.878 21.132 7.188 21.6687 6.452 21.914C6.05333 21.2393 5.624 20.7333 5.164 20.396C4.704 20.0587 4.32067 19.8747 4.014 19.844C3.70733 19.7827 3.278 19.752 2.726 19.752V20.902C4.75 20.902 5.762 22.19 5.762 24.766C5.762 27.0967 5.27133 28.5533 4.29 29.136C3.83 29.3813 3.24733 29.504 2.542 29.504L1.806 29.32C2.41933 30.8533 3.38533 31.62 4.704 31.62C6.05333 31.62 7.28 31.1447 8.384 30.194H8.66ZM54.839 10.046H52.079V18.648H52.401L54.701 21.408V24.766C53.5356 24.766 52.7843 24.9807 52.447 25.41C52.1096 25.8393 51.941 26.514 51.941 27.434V28.032C51.941 29.6267 51.5423 30.9913 50.745 32.126C49.9783 33.2607 48.9356 34.1193 47.617 34.702C45.133 35.7753 42.3116 36.312 39.153 36.312C34.737 36.312 31.1183 35.254 28.297 33.138C25.4756 31.0527 24.065 28.4307 24.065 25.272V24.766H23.605L21.305 22.006V18.648C22.5623 18.648 23.4516 18.694 23.973 18.786V10.046H23.605L21.305 7.286V0.799998H35.289L37.589 3.56V10.046H34.829V18.648H35.243L37.543 21.408V24.766C37.0216 24.7967 36.6076 24.8427 36.301 24.904C35.9943 24.9347 35.657 25.088 35.289 25.364C34.9516 25.64 34.783 26.0387 34.783 26.56C34.783 27.204 35.3963 27.526 36.623 27.526C37.8496 27.526 38.831 27.2807 39.567 26.79C40.3336 26.2687 40.8396 25.594 41.085 24.766H40.763L38.463 22.006V18.648C39.7816 18.648 40.7016 18.694 41.223 18.786V10.046H40.855L38.555 7.286V0.799998H52.539L54.839 3.56V10.046ZM31.517 31.574C33.1423 31.9727 34.921 32.172 36.853 32.172C38.785 32.172 40.5636 31.9727 42.189 31.574C43.8143 31.1753 45.225 30.4393 46.421 29.366C47.6476 28.262 48.261 26.882 48.261 25.226V24.766C48.261 22.2207 49.2576 20.948 51.251 20.948V19.844C50.699 19.844 50.2696 19.8747 49.963 19.936C49.687 19.9667 49.3036 20.1507 48.813 20.488C48.353 20.7947 47.9236 21.27 47.525 21.914C46.8503 21.7607 46.1756 21.2393 45.501 20.35C44.949 21.1473 44.2436 21.6687 43.385 21.914C43.017 21.27 42.603 20.7947 42.143 20.488C41.683 20.1507 41.2996 19.9667 40.993 19.936C40.6863 19.8747 40.257 19.844 39.705 19.844V20.948C40.717 20.948 41.4376 21.2393 41.867 21.822C42.2963 22.4047 42.511 22.9873 42.511 23.57C42.511 25.226 41.9743 26.5293 40.901 27.48C39.8276 28.4 38.4783 28.86 36.853 28.86C35.2276 28.86 33.8783 28.4 32.805 27.48C31.7316 26.5293 31.195 25.226 31.195 23.57C31.195 22.9873 31.4096 22.4047 31.839 21.822C32.2683 21.2393 32.989 20.948 34.001 20.948V19.844C33.449 19.844 33.0196 19.8747 32.713 19.936C32.4063 19.9667 32.023 20.1507 31.563 20.488C31.103 20.7947 30.689 21.27 30.321 21.914C29.5236 21.7607 28.8183 21.2393 28.205 20.35C27.5916 21.1473 26.917 21.6687 26.181 21.914C25.7823 21.27 25.3376 20.7947 24.847 20.488C24.387 20.1507 24.0036 19.9667 23.697 19.936C23.421 19.8747 23.007 19.844 22.455 19.844V20.948C24.4483 20.948 25.445 22.2207 25.445 24.766V25.226C25.445 26.882 26.043 28.262 27.239 29.366C28.4656 30.4393 29.8916 31.1753 31.517 31.574ZM43.799 20.166C44.1056 19.982 44.4736 19.614 44.903 19.062H46.053C46.4516 19.614 46.835 19.982 47.203 20.166C47.5403 19.7673 47.939 19.4453 48.399 19.2V5.998H51.251V2.088H39.843V5.998H42.603V19.2C43.0323 19.4453 43.431 19.7673 43.799 20.166ZM26.503 20.166C26.871 19.9513 27.2543 19.5833 27.653 19.062H28.803C29.2016 19.614 29.5696 19.982 29.907 20.166C30.2443 19.7367 30.6583 19.3993 31.149 19.154V5.998H34.001V2.088H22.593V5.998H25.353V19.2C25.7516 19.4147 26.135 19.7367 26.503 20.166ZM71.418 18.648H71.786L74.086 21.408V24.766C72.89 24.766 72.108 24.9807 71.74 25.41C71.4027 25.8393 71.234 26.5293 71.234 27.48V28.17C71.4487 28.17 71.6327 28.0473 71.786 27.802L73.074 28.63L75.374 31.39C75.19 32.8313 74.6687 33.92 73.81 34.656C72.9514 35.392 71.9087 35.76 70.682 35.76C69.486 35.76 68.3053 35.346 67.14 34.518C65.9747 35.346 64.7633 35.76 63.506 35.76C62.2793 35.76 60.8687 35.024 59.274 33.552C57.6793 32.08 56.79 30.4393 56.606 28.63L57.894 27.802C58.0167 28.078 58.308 28.216 58.768 28.216C60.0867 28.216 60.746 27.066 60.746 24.766H60.194L57.894 22.006V18.648C59.1513 18.648 60.0407 18.694 60.562 18.786V10.046H60.194L57.894 7.286V0.799998H68.888L76.294 9.77L83.792 0.799998H93.82L96.12 3.56V10.046H93.36V18.648H93.728L96.028 21.408V24.766C94.832 24.766 94.05 24.9807 93.682 25.41C93.3447 25.8393 93.176 26.5293 93.176 27.48V28.17C93.3907 28.17 93.5747 28.0473 93.728 27.802L95.016 28.63L97.316 31.39C97.132 32.8313 96.6107 33.92 95.752 34.656C94.8934 35.392 93.8507 35.76 92.624 35.76C91.428 35.76 90.2474 35.346 89.082 34.518C87.9167 35.346 86.7054 35.76 85.448 35.76C84.2214 35.76 82.8107 35.024 81.216 33.552C79.6213 32.08 78.732 30.4393 78.548 28.63L79.836 27.802C79.9587 28.078 80.25 28.216 80.71 28.216C82.0287 28.216 82.688 27.066 82.688 24.766H82.136L79.836 22.006V21.224L78.64 22.696H77.582L75.282 19.982L71.418 15.106V18.648ZM85.08 20.166C85.3867 19.982 85.7547 19.614 86.184 19.062H87.38C87.7787 19.614 88.1467 19.982 88.484 20.166C88.7907 19.7367 89.1894 19.3993 89.68 19.154V5.998H92.532V2.088H84.436L76.34 11.61H75.282L67.232 2.088H59.182V5.998H61.942V19.154C62.3713 19.3687 62.77 19.706 63.138 20.166C63.4447 19.982 63.8127 19.614 64.242 19.062H65.438C65.8367 19.614 66.2047 19.982 66.542 20.166C66.8793 19.706 67.324 19.3533 67.876 19.108V10.368H69.118L75.788 18.694L82.504 10.368H83.746V19.108C84.2367 19.3227 84.6814 19.6753 85.08 20.166ZM64.978 30.194C66.082 31.1447 67.2933 31.62 68.612 31.62C69.9614 31.62 70.9427 30.8533 71.556 29.32C71.3413 29.4427 71.096 29.504 70.82 29.504C68.6733 29.504 67.6 27.9247 67.6 24.766C67.6 22.19 68.612 20.902 70.636 20.902V19.752C70.0534 19.752 69.6087 19.7827 69.302 19.844C68.9953 19.8747 68.612 20.0587 68.152 20.396C67.692 20.7333 67.278 21.2393 66.91 21.914C66.174 21.7607 65.484 21.224 64.84 20.304C64.196 21.132 63.506 21.6687 62.77 21.914C62.3713 21.2393 61.942 20.7333 61.482 20.396C61.022 20.0587 60.6387 19.8747 60.332 19.844C60.0253 19.7827 59.596 19.752 59.044 19.752V20.902C61.068 20.902 62.08 22.19 62.08 24.766C62.08 27.0967 61.5893 28.5533 60.608 29.136C60.148 29.3813 59.5653 29.504 58.86 29.504L58.124 29.32C58.7373 30.8533 59.7033 31.62 61.022 31.62C62.3713 31.62 63.598 31.1447 64.702 30.194H64.978ZM86.92 30.194C88.024 31.1447 89.2354 31.62 90.554 31.62C91.9034 31.62 92.8847 30.8533 93.498 29.32C93.2834 29.4427 93.038 29.504 92.762 29.504C90.6154 29.504 89.542 27.9247 89.542 24.766C89.542 22.19 90.554 20.902 92.578 20.902V19.752C91.9954 19.752 91.5507 19.7827 91.244 19.844C90.9373 19.8747 90.554 20.0587 90.094 20.396C89.634 20.7333 89.22 21.2393 88.852 21.914C88.116 21.7607 87.426 21.224 86.782 20.304C86.138 21.132 85.448 21.6687 84.712 21.914C83.884 20.5033 82.78 19.798 81.4 19.798H80.986V20.902C83.01 20.902 84.022 22.19 84.022 24.766C84.022 27.0967 83.5313 28.5533 82.55 29.136C82.09 29.3813 81.5073 29.504 80.802 29.504L80.066 29.32C80.6794 30.8533 81.6453 31.62 82.964 31.62C84.3133 31.62 85.54 31.1447 86.644 30.194H86.92ZM104.081 0.799998H126.621L128.921 3.56V9.954H126.529L128.231 18.694C128.507 18.6633 128.936 18.648 129.519 18.648L131.819 21.408L132.371 24.72C130.715 24.72 129.887 25.456 129.887 26.928C129.887 27.8173 129.994 28.262 130.209 28.262C130.73 28.262 131.022 28.1087 131.083 27.802L132.555 28.676L134.855 31.436C134.855 32.908 134.487 33.9967 133.751 34.702C133.046 35.4073 132.126 35.76 130.991 35.76C129.887 35.76 128.614 35.3767 127.173 34.61C126.038 35.3767 124.934 35.76 123.861 35.76C122.174 35.76 120.58 35.0087 119.077 33.506C117.605 32.0033 116.608 30.3933 116.087 28.676L117.191 27.802C117.436 28.1087 117.789 28.262 118.249 28.262C119.261 28.262 119.767 27.664 119.767 26.468L119.629 25.41C119.046 25.1033 118.326 24.95 117.467 24.95C116.639 24.95 115.842 25.1953 115.075 25.686C114.308 26.1767 113.787 26.882 113.511 27.802L114.615 28.676L116.915 31.436C116.486 32.8773 115.765 33.9507 114.753 34.656C113.772 35.392 112.714 35.76 111.579 35.76C110.475 35.76 109.31 35.3767 108.083 34.61C106.703 35.3767 105.43 35.76 104.265 35.76C102.67 35.76 101.26 34.9933 100.033 33.46C98.8369 31.9267 98.2389 30.332 98.2389 28.676L99.6649 27.802C99.7262 28.1087 100.018 28.262 100.539 28.262C101.091 28.262 101.612 27.894 102.103 27.158C102.624 26.422 102.946 25.6093 103.069 24.72L100.631 21.96L101.183 18.648C102.502 18.648 103.498 18.74 104.173 18.924L106.013 9.54L104.081 7.194V0.799998ZM121.147 20.212C121.423 19.9973 121.73 19.614 122.067 19.062H123.263C123.754 19.6447 124.198 20.028 124.597 20.212C124.72 19.9973 124.965 19.7367 125.333 19.43L122.711 5.86H125.333V2.088H105.369V5.86H107.991L105.323 19.43C105.691 19.706 105.967 19.9667 106.151 20.212C106.519 19.9973 106.948 19.614 107.439 19.062H108.635C108.88 19.6447 109.141 20.028 109.417 20.212C110.582 19.0467 112.545 18.464 115.305 18.464C118.096 18.464 120.043 19.0467 121.147 20.212ZM124.735 30.194C126.084 31.2367 127.372 31.758 128.599 31.758C129.856 31.758 130.684 30.9607 131.083 29.366C130.93 29.4887 130.715 29.55 130.439 29.55C129.274 29.55 128.277 28.9827 127.449 27.848C126.652 26.6827 126.253 25.5787 126.253 24.536C126.253 22.3587 127.096 21.1473 128.783 20.902L128.599 19.798C128.016 19.798 127.572 19.8287 127.265 19.89C126.989 19.9207 126.652 20.1047 126.253 20.442C125.854 20.7487 125.517 21.2393 125.241 21.914C124.536 21.7913 123.738 21.27 122.849 20.35C122.634 20.7487 122.374 21.086 122.067 21.362C121.791 21.6073 121.469 21.7913 121.101 21.914C119.905 20.442 117.973 19.706 115.305 19.706C112.637 19.706 110.736 20.442 109.601 21.914C108.896 21.7913 108.298 21.27 107.807 20.35C107.071 21.1473 106.304 21.6687 105.507 21.914C105.231 21.2393 104.878 20.7487 104.449 20.442C104.05 20.1047 103.698 19.9207 103.391 19.89C103.084 19.8287 102.655 19.798 102.103 19.798L101.919 20.902C102.778 21.0247 103.406 21.3927 103.805 22.006C104.234 22.5887 104.449 23.4167 104.449 24.49C104.449 25.5633 104.035 26.6827 103.207 27.848C102.41 28.9827 101.444 29.55 100.309 29.55L99.6649 29.366C100.064 30.9607 100.861 31.758 102.057 31.758C103.284 31.758 104.587 31.2367 105.967 30.194H106.243C107.286 31.2367 108.328 31.758 109.371 31.758C110.751 31.758 111.947 30.9607 112.959 29.366C112.714 29.4887 112.438 29.55 112.131 29.55C110.414 29.55 109.555 28.6607 109.555 26.882C109.555 25.1033 110.138 23.708 111.303 22.696C112.468 21.6533 113.818 21.132 115.351 21.132C116.884 21.132 118.234 21.6533 119.399 22.696C120.564 23.708 121.147 25.1033 121.147 26.882C121.147 28.6607 120.288 29.55 118.571 29.55L117.697 29.366C118.678 30.9607 119.89 31.758 121.331 31.758C122.404 31.758 123.447 31.2367 124.459 30.194H124.735ZM111.165 17.36L113.649 5.86H117.053L119.629 17.36H111.165ZM116.823 10.69L115.627 16.164H118.065L116.823 10.69Z" fill="black"/>
</svg>
