<?xml version="1.0" encoding="utf-8"?>
<!-- Generator: Adobe Illustrator 26.4.1, SVG Export Plug-In . SVG Version: 6.00 Build 0)  -->
<svg version="1.1" xmlns="http://www.w3.org/2000/svg" xmlns:xlink="http://www.w3.org/1999/xlink" x="0px" y="0px"
	 viewBox="0 0 500 500" style="enable-background:new 0 0 500 500;" xml:space="preserve">
<style type="text/css">
	.st0{fill:#FFFFFF;}
	.st1{fill:#FF7000;}
	.st2{fill:#FF0000;}
	.st3{fill:none;}
	.st4{font-family:'BebasNeue-Regular';}
	.st5{font-size:36.0832px;}
</style>
<g id="BACKGROUND">
</g>
<g id="OBJECTS">
	<g>
		<path d="M177.08,202.04c-17.24,7.86-37.86,31.09-28.32,76.82c9.54,45.73,51.98,45.03,67.42,26.4c10.68-12.89,12.5-33,12.49-32.35
			c2.83,11.48,4.67,10.7,9.42,11.48c4.75,0.77,9.54,0,15.39,0c5.85,0,7.81-2.87,7.81-2.87l15.34,0.46c0,0,1.42,10.83,6.11,18.74
			c4.68,7.9,18.62,7.9,27.5,4.04c8.89-3.87,9.62-26.98,9.12-30.76c-0.5-3.78-1.9-11.2-1.9-11.2s1.44,0.76,3.1-2.09
			c1.66-2.86,0.41-9.2,0-17.63c-0.41-8.43-5.56-17.99-5.56-17.99s2.02,1,4.36,0c2.34-1,2.24-4.82,2.03-8.58
			c-0.21-3.76-5.1-7.42-5.1-7.42c-2.58-5.36-9.74-3.02-12.99-3.67c-3.25-0.66-18.03-0.26-20.57-1.62s-6.11-4.52-6.11-4.52
			s-2.81-12.94-11.73-19.06c-8.92-6.13-19.68-6.81-19.68-6.81l-2.23-3.45c0,0,1.63-3.32,1.59-3.46c-0.04-0.14,2.95-0.3,3.5-1.76
			c3.52,1.32,7.2,0.63,8.55-1.44c1.35-2.07,7.05-0.69,7.05-0.69c0,2.58,0,2.58,0,2.58s1.03,0.35,3.08,1.43s4.73,1.95,5.03,1.76
			s1.62-2.56,1.62-2.56s7.19,1.6,11.54,2.18s5.32,0.89,6.57-0.52c1.26-1.41,1.74-5.64,1.06-6.33c-0.68-0.69-5.09-1.58-5.09-1.58
			s0.35-2.81-1.1-3.47c-1.45-0.66-4.56,0.97-7.93-0.28c-3.37-1.25-10.64-3.09-10.64-3.09s5.52-9.86,6.49-11.5
			c0.97-1.64,13.05-5.8,13.05-5.8s1.26,3.38,4.35,4.16c3.09,0.77,7.06,0.19,9.47-4.16c2.42-4.35,2.51-11.02-5.99-13.34
			c-8.51-2.32-9.39,8.31-9.39,8.31s-10.23,4.45-13.13,5.7c-2.9,1.26-8.51,12.22-8.89,13.36c-0.39,1.14-0.39,1.14-0.39,1.14
			s-5.2-0.21-5.79,0.14c-0.59,0.34-1.94,4.51-1.94,4.51s-3.87,0.57-5.8,1.58c-1.93,1.01-1.74,2.28-3.96,2.08
			c-2.22-0.2-4.69-1.3-4.69-1.3s1.16-7.69,1.33-10.21c0.17-2.51-2.42-9.28-8.62-11.02c-6.2-1.74-11.32,4.45-11.32,4.45
			s-2.32-2.91-6.96-2.86c-4.64,0.05-5.66,1.31-6.65,3.05c-0.99,1.74-1.49,4-1.49,4s-0.27-2.26-3.46-4
			c-3.19-1.74-5.34-3.05-5.34-3.05s1.19-6.44-2.92-7.15c-4.11-0.72-7.2,5.66-6.62,10.78c0.58,5.12,5.9,3.19,8.02,0.39
			c3.38,1.26,4.49,1.42,5.82,3.03c1.33,1.61,1.23,6.25,1.91,7.7c0.68,1.45,0.29,0.77,0.29,0.77s-1.9,4.39-2.31,4.47
			c-0.4,0.08-5.94-0.1-8.29,1.15c-2.35,1.25-1.86,4.55-0.66,5.8c1.2,1.25,3.38,2.81,4.76,2.56c1.38-0.25,3.29-0.98,3.29-0.98
			s3.89,7.12,6.84,9.63c-1.59,2.31-1.59,2.31-1.59,2.31l-3.19-0.08c0,0-0.21-5.33-4.79-5.72c-4.58-0.39-9.03,3.84-10,7.04
			c-0.97,3.2,0.77,4.65,4.06,5.71c3.29,1.06,4.64,0.91,6.28,0.75c1.64-0.17,5.03-2.58,5.03-2.58l-3.87,8.2c0,0-8.79-1.92-19.52,0.78
			c-10.73,2.71-14.3,5.41-14.4,8.51c-0.1,3.09,3.67,0.68,6.19,0.29S177.08,202.04,177.08,202.04z"/>
		<g>
			<path class="st0" d="M207.14,158.14c-1.25,1.56-1.76,2.85-1.96,4.74c-0.14,1.26-0.84,5.34-0.01,6.35
				c-3.32-4.06-2.61-9.87,0.73-13.66c2.38-2.7,5.9-4.36,9.49-4.5c1.07-0.04,2.15,0.05,3.17,0.36c2.42,0.73,4.36,2.66,5.47,4.92
				c1.11,2.27,1.44,4.85,1.34,7.37c-0.07,1.73-0.56,3.76-2.17,4.38c0.17-3.87,0.28-8.03-1.8-11.3c-0.16,2.44-0.31,4.88-0.47,7.32
				c-0.05,0.84-0.21,1.85-0.98,2.2c-0.28-3.07-0.78-6.13-1.49-9.13c-0.5-0.32-0.94,0.49-0.99,1.08c-0.2,2.57-0.4,5.14-0.61,7.71
				c-1.17-2.66-1.87-5.52-2.07-8.41c-1.21,2.76-1.88,5.75-1.96,8.76c-1.09-2.79-1.76-5.75-1.98-8.74c-1.74,2.59-2.55,5.8-2.22,8.9
				C207.25,163.97,206.72,160.99,207.14,158.14z"/>
			<path class="st0" d="M225.87,151.87c-2.51-2.41-6.33-4.02-9.7-2.48c3.29-0.29,6.48,1.72,8.35,4.45c1.87,2.73,2.63,6.06,3.03,9.34
				c0.59-1.5,0.76-3.16,0.49-4.75c1.21,1.34,1.96,3.07,2.1,4.87c-0.18-2.23,0.92-3.93-0.17-6.23
				C229.09,155.21,227.35,153.29,225.87,151.87z"/>
			<path class="st1" d="M217.85,174.72c-1.82,1.07-4.24,1.38-6.29,0.87c-2.52-0.62-3.09-2.54-4.97-3.68
				c2.55,1.55,6.75,1.87,9.61,1.03c2.19-0.65,4.05-2.1,5.84-3.52C221.36,171.63,219.83,173.56,217.85,174.72z"/>
			<path class="st0" d="M213.57,147.42c-1.9,0.27-3.62,1-5.24,2.03c0.49-2.26,1.1-4.5,1.84-6.69c0.12-0.36,0.25-0.72,0.49-1.01
				c0.97-1.16,5.66-1.81,7.05-1.49c1.82,0.42,3.5,1.75,4,3.56c-1.43-0.68-2.69-0.71-4.27-0.8c1.05,0.92,2.04,1.9,2.97,2.94
				c-1.4-0.45-2.85-0.74-4.32-0.88c1.4,0.62,2.68,1.5,3.77,2.57C217.8,147.19,215.65,147.12,213.57,147.42z"/>
			<path class="st0" d="M238.43,150.24c0.06,0.1,0.11,0.2,0.17,0.3c-3.58-3.38-7.82-3.73-12.44-4.18c-0.9-0.09-1.89-0.1-2.6,0.46
				c0-4.81,1.06-7.73,5.97-8.65c0.69-0.13,1.4-0.25,2.1-0.15c0.61,0.09,1.19,0.34,1.74,0.62c2.4,1.25,4.4,3.27,5.63,5.68
				c-1.66-1.04-3.49-1.83-5.38-2.33c1.94,0.98,3.61,2.49,4.79,4.31c-1.77-1.25-3.89-1.99-6.05-2.1
				C235.01,144.33,237.25,148.15,238.43,150.24z"/>
			<path class="st0" d="M237.13,179.43c0.34-0.97-0.14-2.83-0.16-3.88c-0.99,1.46-2.05,2.28-2.62,4.11
				c-1.58-3.82,1.75-6.67,5.26-7.18c0.52-0.07,1.05-0.13,1.56-0.02c1.18,0.27,2,1.43,2.23,2.62c0.33,1.69-0.37,3.53-1.73,4.58
				c0.07-1.32,0.07-2.64-0.02-3.96c-0.89,1.11-1.65,2.31-2.26,3.59c-0.02-1.28-0.04-2.56-0.06-3.85
				C238.37,176.64,237.63,177.99,237.13,179.43z"/>
			<path class="st0" d="M194.13,181.74c0.34-0.97-0.14-2.83-0.16-3.88c-0.99,1.46-2.05,2.28-2.62,4.11
				c-1.58-3.82,1.75-6.67,5.26-7.18c0.52-0.07,1.05-0.13,1.56-0.02c1.18,0.27,2,1.43,2.23,2.62c0.32,1.69-0.37,3.53-1.73,4.58
				c0.07-1.32,0.07-2.64-0.02-3.96c-0.89,1.11-1.65,2.31-2.26,3.59c-0.02-1.28-0.04-2.56-0.06-3.85
				C195.37,178.95,194.63,180.3,194.13,181.74z"/>
			<path class="st0" d="M265.19,159.58c-0.12-1.36-0.56-2.68-1.28-3.84c-0.42,1.05-0.93,2.07-1.54,3.02
				c-0.22-1.1-0.45-2.19-0.67-3.29c-0.5,1.03-0.9,2.11-1.18,3.22c-0.21-0.59-0.17-1.28-0.51-1.8c-0.66-1.03-2.21-0.79-3.38-0.43
				c0.54-0.17,0.93-3.32,1.71-3.89c1.41-1.04,4.24-0.29,5.87-0.18c0.65,0.04,1.33,0.1,1.87,0.46
				C268.23,154.27,265.05,158.03,265.19,159.58z"/>
			<path class="st1" d="M282.11,157.35c0.99,0.03,2,0.03,2.94,0.33c0.35,0.11,0.74,0.33,0.75,0.7c0.02,0.52-0.67,0.7-1.19,0.7
				c-5.82,0.01-10.87-2.43-16.51-3.08c-0.15-0.02-0.31-0.04-0.43-0.12c-0.35-0.23-0.22-0.83,0.13-1.06c1.39-0.88,4.47,0.86,5.8,1.22
				C276.37,156.81,279.24,157.25,282.11,157.35z"/>
			<path class="st1" d="M273.41,160.17c5.53,1.25,11.06,2.5,16.6,3.75c0.15,0.03,0.33,0.06,0.43-0.06c0.06-0.07,0.07-0.16,0.07-0.25
				c0.03-0.44,0.07-0.88,0.1-1.32c0.01-0.09,0.01-0.19-0.03-0.28c-0.08-0.16-0.28-0.22-0.46-0.25c-5.52-1.01-11.02-2.16-16.48-3.45
				L273.41,160.17z"/>
			<path class="st0" d="M267.33,157.96c1.04,0.29,2.42,0.52,4.63,0.61c0.18,1.25,0.02,2.55-0.46,3.72
				c-0.91-1.66-2.85-2.69-4.73-2.54L267.33,157.96z"/>
			<path class="st1" d="M290.46,165.65c-0.97,0.97-2.54,0.92-3.9,0.74c-3.88-0.5-7.86-1.32-11.7-2.17
				c-0.68-0.15-1.55-0.63-1.32-1.29c0.42-1.19,7.38,1.27,8.29,1.42C284.69,164.85,287.57,165.28,290.46,165.65z"/>
			<path class="st0" d="M270.39,165.77c0.17,0.04,0.37,0.07,0.52-0.03c0.14-0.08,0.2-0.24,0.26-0.39c0.21-0.53,0.41-1.07,0.62-1.6
				c-2.29,0.71-5.23-0.24-6.35-2.45c0,0.96,0.01,1.91,0.01,2.87C265.45,164.28,270.05,165.7,270.39,165.77z"/>
			<path class="st0" d="M232.06,178.18c-0.99-0.11-4.41-1.1-4.82,0.34c-0.08,0.28-0.05,0.58-0.02,0.87
				c-0.85-0.67-0.75-1.85-0.13-2.64c0.33-0.42,1.47-1.18,1.61-0.06c0.01,0.09,0.01,0.21,0.09,0.26l0.16,0.03
				c1.16-0.02,2.31-0.04,3.47-0.06c-0.07,0.37-0.14,0.74-0.2,1.11l-0.06,0.12L232.06,178.18z"/>
			<path class="st1" d="M231.45,167.58c-0.43-0.52-1.48-1.03-2.13-0.46c-0.1,0.09-0.14,0.22-0.17,0.35
				c-0.16,0.61-0.23,1.25-0.22,1.88c-0.44-0.73-0.81-1.53-0.81-2.38c-0.01-1.95,1.72-2.32,3.31-2.01c0.85,0.17,1.63,0.6,2.37,1.06
				c1.45,0.91,2.83,1.94,4.2,2.96c0.63,0.47,1.26,0.94,1.88,1.41c0.42,0.32,0.89,0.84,0.61,1.29c-2.68-0.84-5.88,0.71-6.88,3.34
				c-0.23-1.96-0.97-3.86-2.13-5.47c1.02,0.72,2.04,1.44,3.06,2.15C233.58,170.29,232.55,168.91,231.45,167.58z"/>
			<path class="st0" d="M227.56,172.11c-1.31,4.26-6.67,6.61-10.83,6.42c-1.91-0.09-3.77-0.65-5.55-1.36
				c3.02,0.18,6.08-0.3,8.91-1.39c2.39-0.92,4.4-3.29,6-5.23c-0.44,2.26-1.93,4.3-3.94,5.41
				C224.3,175.27,226.22,173.91,227.56,172.11z"/>
			<path class="st0" d="M237.33,162.46c0.09-0.26,0.17-0.52,0.25-0.79c0.91-0.06,1.82-0.29,2.71-0.08c0.63,0.15,1.84,1.41,2.25,1.41
				c-0.44,0-1.03-0.26-1.42,0c-0.25,0.17-0.41,0.45-0.56,0.72c-0.68,1.25-1.35,2.49-2.03,3.74c-0.04-0.72,0.16-1.43,0.37-2.13
				c0.18-0.61,0.35-1.22,0.53-1.83c-0.63,1.08-1.27,2.15-1.9,3.23c-0.47-0.42-1.01-0.77-1.59-1.02
				C236.48,164.68,236.95,163.58,237.33,162.46z"/>
			<path class="st1" d="M240.99,169.29c-0.04-0.49-0.89-0.68-0.81-1.16c0.02-0.1,0.07-0.18,0.12-0.27c0.84-1.32,1.47-2.73,2.51-3.91
				c-0.01,0.02,0.18,0.98,0.17,1.12c-0.04,0.54-0.29,0.89-0.54,1.35C241.91,167.35,241.38,168.26,240.99,169.29z"/>
			<path class="st0" d="M225.88,204.14c-1.36-1.12-3.19-1.78-4.89-1.31c3.35-7.82,6.71-15.65,10.06-23.47
				c1.06,0.1,2.09,0.87,2.65,1.78c-2.65,6.42-5.86,12.52-8.76,18.83c0.22,0.07,0.44,0.14,0.67,0.2c3.56-5.95,6.77-12.1,9.6-18.42
				c-2.63,6.92-5.5,13.75-8.6,20.48C226.34,202.82,226.33,203.67,225.88,204.14z"/>
			<path class="st1" d="M228.6,206.22c-0.56-0.32-0.81-1.01-0.79-1.65c0.03-0.64,0.28-1.25,0.54-1.84
				c2.85-6.64,5.34-13.34,7.95-20.09c-0.33,0.85-0.26,2.04-0.38,2.95c-0.18,1.41-0.72,2.56-1.24,3.85c-0.62,1.52-0.97,3.15-1.51,4.7
				C231.74,198.21,230.22,202.23,228.6,206.22z"/>
			<path class="st1" d="M244.58,178.25c0.02,1.08-0.61,2.45-1.44,3.17c-1.21,1.05-2.4,0.48-3.72,0.73c1.39-0.26,2.65-1.09,3.49-2.22
				c0.66-0.88,1.51-2.9,1.1-4.01C244.3,176.67,244.56,177.45,244.58,178.25z"/>
			<path class="st0" d="M224.04,208.8c-0.33-0.73-2.68-1.14-3.38-1.23c-0.99-0.13-2.31-0.25-3.15,0.41
				c0.25-1.03,1.04-3.62,2.16-3.92c1.07-0.29,2.22-0.38,3.29-0.09c1.07,0.3,2.05,1.02,2.49,2.04c-0.38-0.45-1.01-0.6-1.6-0.64
				c-0.59-0.03-1.19,0.02-1.76-0.15c1.19,0.29,2.21,1.2,2.64,2.35c-1.07-0.71-2.34-1.12-3.62-1.17
				C222.26,206.98,223.5,207.62,224.04,208.8z"/>
			<path class="st0" d="M228.66,209.14c0,0.2-0.02,0.4-0.08,0.58c-0.42,1.28-1.01,2.51-1.74,3.65c0.31-1.98,1.08-4.18,0.4-6.15
				C228.11,207.34,228.65,208.28,228.66,209.14z"/>
			<path class="st0" d="M218.91,209.58c-0.34,0.39-0.54,1.02-0.84,1.82c-0.69,1.86-1.38,3.72-2.07,5.59
				c-1.38,3.73-2.75,7.46-4.13,11.19c-2.74,7.37-5.52,14.72-8.51,21.99c-0.15,0.36-0.3,0.74-0.27,1.13c0.03,0.38,0.23,0.73,0.34,1.1
				c0.63,2.14-1.84,4.37-1.04,6.45c0.37,0.96,1.36,1.55,2.34,1.85c-0.45-1.99-0.83-4.18,0.1-6c0.85-1.69,2.41-1.51,4-1.27
				c0.19,0.03,0.42,0.05,0.55-0.1c0.09-0.1,0.09-0.25,0.1-0.39c0.07-4.43,2.2-8.53,3.53-12.76c0.5-1.6,0.9-3.23,1.35-4.84
				c0.86-3.05,1.93-6.03,3.01-9c1.32-3.65,2.64-7.31,3.95-10.96c-0.95,2.86-2.76,5.62-3.89,8.45c-1.15,2.89-2.18,5.82-3.18,8.76
				c-2.01,5.93-4,11.78-6.42,17.55c-0.13,0.3-0.26,0.62-0.53,0.82c-0.26,0.2-0.68,0.23-0.89-0.03c-0.45-0.56,1-4.39,1.2-5.11
				c0.5-1.76,1.07-3.5,1.69-5.22c1.2-3.32,2.8-6.4,3.97-9.71c2.58-7.31,5.3-14.58,8.16-21.79
				C220.65,209.1,219.47,208.93,218.91,209.58z"/>
			<path class="st1" d="M224.4,216.52c-4.68,11.95-8.74,24.14-12.15,36.51c-0.12-0.3-0.06-0.63,0.01-0.95
				c1.79-8.34,4.07-16.57,6.82-24.64c1.01-2.95,2.36-5.9,3.13-8.92c0.67-2.6,2.22-4.92,2.34-7.69
				C225.88,212.53,225.1,214.73,224.4,216.52z"/>
			<path class="st0" d="M207.49,199.69c2.54,1.15,4.98,2.65,7.3,4.15c-5.38-7.09-13.97-10.23-22.63-10.66
				c-4.37-0.22-8.78,0.27-13,1.43c-3.59,0.99-8.71,2.18-10.33,5.95c0.68,0.52,1.65,0.18,2.43-0.18c2.36-1.08,4.41-2.72,7.05-2.39
				c2.75,0.34,5.27,1.73,8.07,1.87c3,0.15,5.86-1.06,8.8-1.76l0.15-0.03c0,0-0.01,0-0.01,0c0.21-0.05,0.42-0.1,0.63-0.14l-0.62,0.14
				c2.32-0.23,4.69-0.02,6.93,0.64c4.16,1.23,7.74,3.89,11.06,6.7C211.51,203.36,209.69,201.3,207.49,199.69z"/>
			<path class="st1" d="M225.71,217.81c6.24,13.52,5.85,38.33,5.17,46.79c-1.46-3.89-0.97-5.84-1.17-14.49
				c-0.19-8.66-3.78-25.61-5.25-28.4C224.95,219.46,225.71,217.81,225.71,217.81z"/>
			<path class="st1" d="M201.78,182.95c0.94-0.96,1.25-1.94,1.07-3.2c-0.1-0.71-0.21-1.43-0.45-2.11c-0.16-0.45-0.8-1.17-0.84-1.6
				c0.13,1.42,0.07,3.26-0.41,4.63c-0.34,0.98-0.99,1.89-1.9,2.39c-1.09,0.6-2.4,0.59-3.64,0.55
				C197.49,184.84,200.21,184.54,201.78,182.95z"/>
			<path class="st1" d="M207.44,181.26c-0.28-0.23-3.31-1.47-3.05-0.15c-0.11-0.57-0.23-1.14-0.34-1.7c0.81-0.13,2.22-0.02,2.9,0.48
				C207.37,180.19,207.63,180.77,207.44,181.26z"/>
			<path class="st1" d="M240.48,150.63c-0.12,1.54-0.44,3.07-0.45,4.61c-0.36-0.36-0.74-0.77-0.82-1.28
				c-0.05-0.32,0.03-0.64,0.11-0.95c0.41-1.69,0.52-3.53,0.64-5.26c0.04-0.52,0.06-1.08-0.19-1.54c0.39,0.71,0.87,1.1,0.91,1.97
				C240.71,148.94,240.54,149.87,240.48,150.63z"/>
			<path class="st0" d="M244.35,164.67c0.11-1.68-1.39-3.33-2.91-3.88c-0.57-0.21-4.19-0.49-4.24,0.22c0.04-0.54,0.37-1.03,0.8-1.37
				c1.59-1.25,3.6-0.7,5.25,0.18c0.55,0.29,1.08,0.66,1.44,1.18c0.6,0.86,0.62,2.01,0.42,3.04c-0.04,0.2-0.09,0.4-0.22,0.55
				C244.75,164.73,244.5,164.79,244.35,164.67z"/>
			<path class="st0" d="M251.99,160.02c-1.34,0.78-2.9,1.12-4.43,1.2c-1.7,0.1-1.48-1.03-2.91-1.39c1.64,0.14,3.23,0.34,4.71-0.48
				c1.26-0.7,2.43-1.62,3.81-2.05c1.37-0.43,2.84-0.33,4.27-0.21c0.4,0.03,0.81,0.07,1.16,0.25s0.65,0.54,0.64,0.94
				c-1.64-0.4-3.43-0.45-4.95,0.29C253.47,158.96,252.77,159.56,251.99,160.02z"/>
			<path class="st1" d="M256.8,160.79c-1.65,0.51-2.47,1.76-4.03,2.36c-1.51,0.58-3.21,0.56-4.7-0.07c0.79,0.33,1.69,0.09,2.49-0.21
				c2.03-0.77,3.72-2.52,5.77-3.1c1.65-0.46,3.38,0.25,4.95,0.94C259.85,160.21,258.26,160.35,256.8,160.79z"/>
			<path class="st1" d="M235.96,157.55c-0.94,0.16-1.91-0.05-2.8-0.37c1.96-0.15,3.62-0.58,4.34-2.61c0.37,0.22,0.6,0.66,0.58,1.09
				C238.03,156.7,236.88,157.4,235.96,157.55z"/>
			<path class="st1" d="M234.25,160.77c1.08,1.2,1.26,3.99-1.12,3.52c-0.1-0.02-0.2-0.05-0.26-0.14c-0.05-0.08-0.04-0.19-0.02-0.29
				c0.09-0.61,0.13-1.23,0-1.83c-0.18-0.8-0.81-1.8-1.28-2.48C232.54,159.58,233.58,160.04,234.25,160.77z"/>
			<path class="st0" d="M205.61,186.13c-0.86,2.24-1.93,4.39-3.21,6.42c1.76,0.66,3.47,1.47,5.11,2.41
				c0.44-1.28,0.88-2.55,1.32-3.83c-0.5-0.06-0.89,0.38-1.25,0.74c-0.46,0.48-1.01,0.87-1.61,1.17c-0.12-0.31,0.04-0.64,0.19-0.93
				c0.69-1.35,1.31-2.73,1.86-4.15c0.07-0.18,0.06-0.47-0.13-0.46L205.61,186.13z"/>
			<path class="st0" d="M218.37,203.38c-1.15-2.39-2.38-5.79-1.55-8.42c0.39-1.23,0.08-3.28,1.27-4.1c-1.79,0.78-2.63,1.3-3.26,3.35
				c-0.54,1.73-0.4,3.64,0.23,5.27c0.32,0.84,0.79,1.63,1.38,2.31C216.86,202.27,218.14,202.89,218.37,203.38z"/>
			<path class="st0" d="M207.4,182.94c0.83-1.03,1.94-1.64,2.83-2.55c1.34-1.37-1.51-1.49-1.26-1.89
				C208.18,179.81,207.9,181.5,207.4,182.94z"/>
			<path class="st0" d="M177.97,203.99c-7.3,2.64-13.32,7.67-18.71,16.98c-8.61,14.88-10.07,32.39-9.19,43.63
				c0.73-12.11,4.82-23.39,4.82-23.39c-1.75,15.22-0.88,23.69,0,29.52c0-12.99,2.33-25.39,3.79-28.45
				c-1.46,23.35,0.73,27.43,1.61,31.23c-1.31-14.74,0.88-27.61,3.79-38.61c2.92-11,13.44-29.75,35.18-30.9
				C190.34,200.54,182.33,202.41,177.97,203.99z"/>
			<path class="st0" d="M177.35,286.05c3.46,5.67,8.1,11.65,14.6,13.95c6.33,2.24,13-1.08,17.19-5.91c3.22-3.71,5.24-8.3,6.77-12.96
				c2.3-6.99,3.62-14.42,2.77-21.74c-0.66,7.6-3.61,17.12-6.5,24.17c1.91-8.03,2.09-12.97,2.32-17.95
				c-1.67,7.2-3.15,15.37-6.73,21.84c1.09-3.51,2.07-7.04,3.06-10.58c0.57-2.06,1.15-4.25,0.55-6.31
				c-1.32,5.59-3.32,11.02-5.95,16.13c-1.41,2.74-4.16,6.09-6.85,7.64c-2.29,1.31-5.08,1.56-7.67,1.02
				C185.81,294.3,180.1,290.54,177.35,286.05z"/>
			<path class="st0" d="M194.85,237.99c-2.66,0.92-4.74,3.12-6.04,5.62c-1.29,2.5-1.89,5.3-2.32,8.09
				c-0.93,5.88-0.7,10.95,1.45,16.54c0.74,1.93,1.66,3.83,3.02,5.38c1.36,1.56,3.21,2.76,5.26,3.03c4.17,0.54,5.08-1.91,6.7-5.01
				c-0.56,1.07-1.61,1.87-2.8,2.12c1.1-0.97,1.9-2.3,2.23-3.73c-0.71,0.87-1.73,1.49-2.83,1.71c0.99-1.12,1.58-2.59,1.63-4.09
				c-0.84,1.26-2.27,2.25-3.78,2.09c-2.17-0.23-3.42-2.57-4.04-4.67c-1.63-5.55-1.53-11.59,0.29-17.07
				c0.34-1.03,0.77-2.08,1.57-2.81c1.8-1.63,4.72-0.18,5.04,2.15c-0.23-1.71-0.9-3.37-1.92-4.76c1.19,0.71,2.26,1.64,3.14,2.72
				c-0.36-0.44-1.55-4.09-1.43-4.53c1.02,0.48,1.85,1.51,2.35,2.52c0.23-0.95-0.26-1.9-0.74-2.75c-0.59-1.05-1.25-2.17-2.35-2.68
				C197.98,237.28,196.18,237.53,194.85,237.99z"/>
			<path class="st0" d="M211.47,257.91c0.3-0.48,0.6-0.97,0.71-1.53c0.11-0.55,0-1.19-0.43-1.56c-0.76-0.66-4.75-0.18-5.56,0.26
				c-0.54,0.3-0.89,1.03-0.57,1.56c-0.21-0.33,2.83-0.66,3.13-0.63C209.98,256.12,211.16,256.55,211.47,257.91z"/>
			<path class="st1" d="M171.37,271.16c-4.23-16.66,0.15-37.35,7.73-48c7.59-10.65,17.14-8.61,22.03-6.42
				c-9.11-1.61-16.2,1.19-21.3,9.63C168.89,244.46,171.37,261.24,171.37,271.16z"/>
			<path class="st1" d="M225.5,249.57c1.18,21.01-3.34,55.15-28.31,62.45c11.51,0.88,21.52-13.87,23.8-19.55
				C226.84,277.87,227.38,258.91,225.5,249.57z"/>
			<path class="st0" d="M268.54,186.91c-5.07-7.23-14.26-10.2-22.95-11.79c0.28,1.69,0.35,3.78,0.21,5.49
				c-0.13,1.71-1.2,3.52-2.89,3.78c-1.09,0.17-2.5-0.2-3.09,0.74c-0.2,0.32-0.23,0.72-0.23,1.1c0,2.44,0.95,4.87,2.6,6.66
				c0.09-1.71,0.18-3.42,0.27-5.13c1.05,2.44,2.68,4.63,4.71,6.34c-0.44-2.55-0.89-5.1-1.33-7.66c1.59,2.51,3.18,5.03,4.78,7.54
				c-0.61-0.96-0.55-4.48-0.5-5.65c0.11-2.28,0.78-3.04,3.06-2.92c5.4,0.28,10.22,7.83,12.28,12.23c-0.84-3.45-2.8-6.49-4.73-9.47
				c3.03,2.67,5.58,5.89,7.46,9.47c-0.71-3.23-1.94-6.34-3.65-9.17c4.71,5.03,7.92,11.25,11.06,17.39
				C274.94,199.03,272.46,192.51,268.54,186.91z"/>
			<path class="st0" d="M298.61,206.69c3.45,0.1,6.89,0.21,10.36,0.4c1.15,0.07,2.38,0.15,3.31,0.83c1.5,1.07,2.81,4.33,2.73,6.12
				c-0.47-1.74-2.25-2.86-4.03-3.17c-1.78-0.31-3.6,0.02-5.39,0.23c-3.63,0.42-7.31,0.34-10.91-0.25c3.82-0.72,7.69-1.13,11.58-1.25
				c-5.98-0.17-11.96-0.35-17.94-0.52c-2.81-0.08-5.58-0.08-7.79-2.04c-1.61-1.42-3.24-2.86-4.38-4.68
				c4.39,3.02,9.89,3.94,15.11,4.11C293.71,206.56,296.16,206.62,298.61,206.69z"/>
			<path class="st1" d="M319.36,216.86c-0.03,2.01-0.07,4.02-0.1,6.03c-0.62-1.33-0.61-2.86-0.78-4.32
				c-0.31-2.59-3.13-3.42-2.9-6.35C317.88,212.8,319.4,214.56,319.36,216.86z"/>
			<path class="st1" d="M304.98,220.4c1.49,0.08,2.97,0.07,4.46-0.02c2.96-0.19,4.23-1.99,4.68-4.87c1.91,0.86,1.74,4.72,0.06,5.74
				C312.04,222.55,307.35,220.53,304.98,220.4z"/>
			<path class="st1" d="M295.08,222.82c0.76,0,1.55,0.02,2.21,0.32c1.14,0.53,1.47,1.72,1.67,2.77c0.9,4.72,2.61,10.48,0.49,15.11
				c0.92-5.06-2.12-10-3.04-15.06c-0.06-0.32-0.13-0.68-0.44-0.89c-0.21-0.14-0.5-0.18-0.77-0.22c-4.56-0.62-9.14-1.14-13.74-1.57
				C286.04,223.29,290.51,222.8,295.08,222.82z"/>
			<path class="st0" d="M284.49,228.89c1.48,0.59,5.26-0.33,6.88-0.5c-4.36-1.56-8.22-3.58-12.86-4.14c0.75,2.7,3.03,4.93,4.27,7.44
				c1.33,2.68,3.18,5.66,5.66,7.42c2.18,1.58,5.31,2.16,7.55,0.68c-2.39-1.12-4.77-2.24-7.16-3.36c2.03,0.06,4.06-0.05,6.06-0.33
				c-2.33-1.48-4.76-2.79-7.26-3.94c1.88-0.2,3.76-0.32,5.65-0.34C290.3,231.02,287.36,230.04,284.49,228.89z"/>
			<path class="st1" d="M302.92,222.48c-0.93,0.17-2.27,0.61-3.23,0.5c-0.91,3.38,10.01,0.83,11.79,0.67
				C309.08,221.91,305.83,221.95,302.92,222.48z"/>
			<path class="st1" d="M320.56,256.37c-0.27-1.46-1.89-2.28-2.51-3.64c-0.29-0.63-0.34-1.34-0.38-2.03
				c-0.25-4.24-0.8-8.51-2.02-12.59c-0.61-2.05-1.38-4.06-2.43-5.92c-0.99-1.75-2.7-3.26-3.52-5.03c-0.18-0.39-0.31-0.82-0.23-1.24
				c0.08-0.42,0.41-0.81,0.84-0.84c0.58-0.04,0.98,0.54,1.27,1.04c2.57,4.57,5.05,9.08,6.61,14.12
				C319.88,245.66,319.64,250.91,320.56,256.37z"/>
			<path class="st1" d="M307.27,255.53c2.52-0.22,5.04-0.36,7.57-0.43c1.57-0.04,3.41,0.08,4.26,1.4c0.64,1,0.44,2.3,0.19,3.45
				c-0.05,0.22-0.12,0.47-0.33,0.54c-0.16,0.06-0.35-0.03-0.48-0.14c-0.83-0.69-0.51-2.28-1.46-2.8c-0.28-0.15-0.61-0.17-0.92-0.18
				c-2.88-0.11-5.75-0.22-8.63-0.33L307.27,255.53z"/>
			<path class="st0" d="M299.61,260.93c0.29-0.11,0.6-0.25,0.75-0.53c0.1-0.2,0.11-0.43,0.19-0.64c0.22-0.6,1.03-0.83,1.62-0.6
				c0.6,0.23,1.01,0.79,1.29,1.37c0.66,1.38,0.74,3.03,0.22,4.47c-0.5-1.5-1.49-2.83-2.8-3.72c0,0.98-0.16,1.95-0.47,2.88
				c-0.38-0.81-0.77-1.62-1.15-2.43c-0.48,0.82-0.77,1.76-0.83,2.71c-0.32-0.53-0.63-1.05-0.95-1.58c-0.06-0.1-0.14-0.21-0.25-0.2
				c-0.14,0.01-0.19,0.18-0.22,0.31c-0.1,0.55-0.19,1.1-0.29,1.65c-0.49-0.59-0.98-1.18-1.46-1.78c-0.24,0.66-0.49,1.32-0.74,1.98
				c-0.43-0.65-0.87-1.3-1.3-1.95c-0.2,0.86-0.5,1.71-0.97,2.45C289.09,262.18,298.37,261.4,299.61,260.93z"/>
			<path class="st1" d="M273.9,215.73c2.06-0.53,2.3-3.4,2.08-5.12c-1.22,1.64-4.2,2.96-6.21,2.84c-1.58-0.09-3.08-0.73-4.52-1.39
				c-8.1-3.66-16-8.1-22.25-14.41c1.22,4.01,4.22,5.95,7.44,8.25c3.33,2.38,7.11,4.06,10.9,5.62c3.31,1.36,6.66,2.64,10.03,3.84
				C272.19,215.65,273.07,215.94,273.9,215.73z"/>
			<path class="st1" d="M296.52,218.99c-2.52-0.34-5.19-0.95-7.72-0.91c-2.19,0.03-3.76,0.18-5.79-1.03
				c-1.73-1.02-3.16-2.48-4.55-3.94c0.78,2.3,2.76,4.51,4.82,5.78c0.65,0.4,1.35,0.75,2.1,0.91c0.64,0.13,1.29,0.11,1.94,0.09
				C290.39,219.76,293.47,219.46,296.52,218.99z"/>
			<path class="st1" d="M233.28,206.73c0,0-0.68-0.43,0.66,6.64s11.07,54.93,12.23,59.21c1.17,4.28,11.81,4.28,22.44,6.03
				c10.63,1.75,10.33,1.73,13.4,1.45c3.07-0.28,16.49-6.55,16.49-6.55s-12.17,4.33-16.49,4.72s-30.2-4.28-32.53-5.64
				c-2.33-1.36-13.32-59.2-13.86-62.28C235.08,207.2,233.28,206.73,233.28,206.73z"/>
			<path class="st0" d="M252.84,218.46c0.38-0.42,0.89-0.79,1.61-1.11c1.02-0.45,2.06-0.88,3.1-1.26c-1.4-0.25-2.84,0.13-4.17,0.65
				c-0.83,0.33-1.66,0.72-2.27,1.37c-0.61,0.65-0.96,1.61-0.69,2.46c-0.55-0.85-0.64-1.97-0.23-2.9c0.41-0.92,1.31-1.61,2.31-1.76
				c-1.1,0.3-2.22,0.6-3.17,1.23c-0.95,0.63-1.72,1.65-1.75,2.79c-0.39-0.8-0.34-1.81,0.14-2.57c0.48-0.76,1.36-1.24,2.25-1.24
				c-1.89,0.33-3.66,1.34-4.9,2.8c-0.27-0.62,0.01-1.38,0.5-1.84c0.49-0.47,1.15-0.71,1.79-0.92c4.89-1.57,10.19-1.82,15.21-0.73
				c0.26,0.06,0.54,0.13,0.73,0.31c0.27,0.26,0.31,0.67,0.37,1.04c0.16,1.06,0.59,2.07,1.22,2.93c-2.55,0.97-5.21,1.61-7.77,2.54
				c-1.05,0.38-1.97,1.01-3.06,1.3c-0.28,0.07-3.18,0.22-3.14,0.12C251.86,221.68,251.59,219.84,252.84,218.46z"/>
			<path class="st0" d="M251.11,225.78c1.04,0.34,2.31,0.26,3.39,0.16c1.17-0.1,2.31-0.33,3.45-0.62c2.35-0.6,4.66-1.4,6.97-2.14
				c0.9-0.29,0.51-1.71-0.39-1.42c-2.23,0.73-4.45,1.5-6.7,2.13c-1.07,0.3-2.15,0.56-3.24,0.79c-1.14,0.24-2.35,0.27-3.47,0.56
				C250.83,225.32,250.85,225.7,251.11,225.78z"/>
			<path class="st0" d="M252.06,228.21c2.29,0.26,4.58,0.15,6.85-0.3c1.12-0.22,2.22-0.5,3.31-0.84c1.01-0.32,2.34-0.6,3.14-1.29
				c0.42-0.36,0.09-1.18-0.47-1.13c-0.54,0.04-1.01,0.29-1.51,0.47c-0.51,0.19-1.03,0.37-1.56,0.54c-1.05,0.33-2.11,0.62-3.18,0.85
				c-2.17,0.47-4.38,0.81-6.59,1.07C251.66,227.64,251.66,228.17,252.06,228.21z"/>
			<path class="st0" d="M252.64,230.86c2.37,0.26,4.67,0.23,6.98-0.42c1.06-0.3,2.1-0.68,3.15-1c0.52-0.16,1.05-0.3,1.59-0.41
				c0.56-0.11,1.19-0.07,1.71-0.29c0.69-0.28,0.41-1.42-0.32-1.15l-0.12,0.04c-0.29,0.11-0.48,0.44-0.3,0.73l0.06,0.1
				c0.22-0.29,0.45-0.58,0.67-0.87c-0.91-0.29-2.21,0.14-3.09,0.38c-1.1,0.3-2.17,0.71-3.25,1.07c-2.3,0.77-4.67,1.02-7.08,1.19
				C252.23,230.26,252.24,230.82,252.64,230.86z"/>
			<path class="st0" d="M253.37,233.76c2.22,0.22,4.38,0.32,6.61,0.1c1.08-0.11,2.16-0.25,3.23-0.45c0.54-0.1,1.08-0.22,1.62-0.34
				c0.51-0.12,1.01-0.17,1.38-0.56c0.31-0.34,0.17-0.85-0.26-1c-0.51-0.17-1,0.05-1.5,0.16c-0.54,0.12-1.08,0.24-1.62,0.34
				c-1.02,0.2-2.05,0.37-3.08,0.48c-2.1,0.24-4.25,0.43-6.37,0.41C252.82,232.9,252.84,233.7,253.37,233.76z"/>
			<path class="st0" d="M253.66,236.33c1.01,0.07,2.02,0.22,3.03,0.19c0.94-0.03,1.87-0.1,2.8-0.22c1.88-0.24,3.92-0.5,5.69-1.22
				c0.82-0.33,0.52-1.5-0.37-1.34c-0.92,0.16-1.83,0.45-2.74,0.65c-0.92,0.2-1.84,0.39-2.76,0.53c-0.94,0.15-1.88,0.27-2.83,0.37
				c-0.94,0.1-1.87,0.29-2.82,0.35C253.21,235.66,253.22,236.29,253.66,236.33z"/>
			<path class="st0" d="M250.38,240.45c0.18,0.08,0.34,0.15,0.53,0.18c0.2,0.04,0.41,0.08,0.61,0.07c0.37,0,0.77-0.02,1.13-0.13
				c0.3-0.09,0.49-0.38,0.45-0.69c-0.04-0.28-0.31-0.58-0.62-0.55c-0.13,0.01-0.27,0.04-0.4,0.06l0.17-0.02
				c-0.25,0.03-0.49,0.08-0.74,0.12l0.17-0.02c-0.23,0.03-0.45,0.06-0.67,0.1l-0.13,0.02l-0.07,0.01c0.09-0.01,0.08-0.01-0.01,0
				c-0.11,0.01-0.21,0.05-0.32,0.08c-0.16,0.05-0.28,0.19-0.3,0.35C250.16,240.18,250.23,240.38,250.38,240.45z"/>
			<path class="st0" d="M250.9,243.42c0.33-0.03,0.66-0.04,0.99-0.05c0.16,0,0.32-0.01,0.49-0.03c0.08-0.01,0.16-0.01,0.24-0.02
				l0.12-0.01c0.16-0.01,0.28-0.04,0.42-0.12c0.24-0.13,0.36-0.42,0.32-0.67c-0.04-0.27-0.22-0.47-0.48-0.56
				c-0.21-0.07-0.44-0.02-0.65,0.01c-0.21,0.03-0.42,0.06-0.62,0.12c-0.32,0.09-0.64,0.19-0.95,0.31c-0.24,0.09-0.41,0.3-0.37,0.57
				C250.42,243.21,250.64,243.44,250.9,243.42z"/>
			<path class="st0" d="M251.47,246.01l0.21,0.02c-0.1-0.03-0.2-0.05-0.3-0.08l0.2,0.08c0.08,0.02,0.15,0.02,0.23,0.02l0.21,0.01
				c0.14,0,0.27-0.02,0.41-0.04c0.19-0.02,0.38-0.06,0.57-0.09c0.23-0.04,0.48-0.07,0.64-0.27c0.09-0.09,0.14-0.19,0.18-0.3
				c0.03-0.09,0.03-0.18,0.01-0.28c-0.03-0.21-0.14-0.39-0.33-0.5c-0.21-0.13-0.41-0.12-0.64-0.08l-0.21,0.04
				c-0.14,0.02-0.27,0.05-0.41,0.08c-0.14,0.03-0.27,0.06-0.4,0.11c-0.2,0.08-0.42,0.15-0.58,0.3l0.12-0.09l-0.17,0.09
				c-0.2,0.1-0.31,0.38-0.24,0.6c0.03,0.09,0.07,0.17,0.14,0.23C251.2,245.96,251.34,245.99,251.47,246.01z"/>
			<path class="st0" d="M251.33,248.26c0.25-0.03,0.51-0.06,0.76-0.08c0.12-0.01,0.25-0.03,0.37-0.04c0.11-0.01,0.23-0.03,0.34-0.05
				c0.17-0.03,0.3-0.12,0.43-0.23c0.18-0.14,0.23-0.44,0.17-0.65c-0.06-0.23-0.24-0.39-0.46-0.46c-0.34-0.11-0.71,0.04-1.04,0.13
				c-0.24,0.07-0.49,0.13-0.73,0.2c-0.29,0.08-0.47,0.37-0.43,0.66c0.02,0.13,0.07,0.26,0.17,0.35
				C251.01,248.19,251.17,248.28,251.33,248.26z"/>
			<path class="st1" d="M277.73,228.61c1.21,3.3,2.43,6.6,3.64,9.91c0.38,1.03,0.76,2.13,0.51,3.2c-0.45,1.94-2.59,2.29-4.27,2.63
				c-1.06,0.21-2.16,0.23-3.22,0.04c-0.81-0.14-2.03-1.01-2.75-1c2.49-0.04,4.98-0.51,7.31-1.39c0.27-0.1,0.54-0.22,0.71-0.45
				c0.26-0.36,0.15-0.85,0.03-1.28c-0.86-3.08-1.83-6.13-2.93-9.13c-0.49-1.35-1.01-2.7-1.83-3.88c-1.4-2.02-4.76-4.39-7.11-5.05
				c2.1,0.59,4.77-1.26,6.8,0.46C276.17,223.97,277.06,226.8,277.73,228.61z"/>
			<path class="st1" d="M285.75,251.79c1.59,2.48,2.18,5.48,2.28,8.43c0.13,3.69-0.58,7.66-3.17,10.29
				c2.71-5.32,2.12-11.96-0.77-17.18c-0.2-0.37-0.43-0.74-0.78-0.96c-1.09-0.68-2.43,0.49-2.98,1.65c-0.65,1.39-0.95,2.95-0.84,4.48
				c-0.29-2.24-0.23-4.52,0.19-6.74c-1.3,1.78-2.06,3.95-2.17,6.15c-0.42-2.14-0.25-4.39,0.49-6.45c-1.43,1.56-2.32,3.59-2.51,5.69
				c0.19-2.2-0.52-4.25,0.91-6.3C279.28,246.73,283.33,248.03,285.75,251.79z"/>
			<path class="st0" d="M268.1,247.58c-2.45,1.37-4.01,4.2-4.76,6.84c-0.69,2.43-0.86,5.01-0.5,7.51c0.45-3.53,1.83-6.94,3.97-9.79
				c-0.95,2.47-1.14,5.22-0.54,7.79c0.13-3.01,1.09-5.98,2.76-8.48c-0.64,2.4-0.79,4.93-0.44,7.39c0.6-2.57,1.34-5.16,2.8-7.37
				c1.37-2.08,3.56-3.21,6-3.63c0.9-0.15,1.81-0.19,2.72-0.27c-0.43,0.04-1.63-0.84-2.13-0.99c-0.94-0.29-1.92-0.43-2.9-0.42
				c-1.6,0.02-3.39,0.4-4.97,0.69C269.38,246.98,268.72,247.24,268.1,247.58z"/>
			<path class="st0" d="M278.41,271.93c-1.41-1.23-2.21-3.14-2.1-5.01c1.13,3.51,5.14,5.81,8.74,5.03
				c-1.78,0.53-3.57,1.06-5.43,1.23c-5.58,0.5-9.11-3.04-11.11-7.95c0.58,1.43,2.88,3.31,4.02,4.35
				C274.07,270.98,276.34,271.91,278.41,271.93z"/>
			<path class="st0" d="M259.89,257.42c0.7-2.47,1.43-4.92,2.88-7.07c0.91-1.35,3.47-3.34,5.15-3.43c-3.24,0.18-5.57,0.49-8.31,2.15
				c-2.24,1.36-4.74,3.15-5.41,5.84c-0.3,1.2-0.26,2.45-0.21,3.69c0.99-2.03,2.15-3.98,3.46-5.82c-0.29,1.73-0.42,3.48-0.4,5.23
				c0.91-1.93,1.81-3.85,2.72-5.78C259.81,253.96,259.85,255.69,259.89,257.42z"/>
			<path class="st1" d="M252.3,251.88c-0.51,0.46-2.76,0.39-3.58,0.68c-0.9,0.32-1.63,1.07-1.94,1.97c-0.42,1.24,0.18,2,0.46,3.11
				c0.31,1.22,0.35,2.55,0.56,3.79c0.46,2.64,1.04,5.27,1.76,7.85c0.05,0.18,0.11,0.38,0.24,0.52c0.15,0.15,0.37,0.21,0.57,0.26
				c1.21,0.28,2.44,0.43,3.68,0.45c-1.18-0.1-2.16-1.02-2.67-2.08c-0.51-1.07-0.63-2.27-0.75-3.45c-0.17-1.71-0.33-3.41-0.5-5.12
				c-0.14-1.43-0.28-2.88,0.02-4.28C250.48,254.17,251.23,252.86,252.3,251.88z"/>
			<path class="st0" d="M304.79,264.65c-1.12,3.36-2.03,6.02-4.89,8.27c0.35-0.27,1.92,0.09,2.54-0.26
				c0.79-0.45,1.07-0.97,1.43-1.81C304.71,268.88,304.77,266.74,304.79,264.65z"/>
			<path class="st0" d="M306.6,228.75c-0.78-0.13-1.86-0.16-2.47-0.57c0.64-0.59,1.56-0.83,2.34-1.21c-1.1-0.25-2.39-0.21-3.45,0.22
				c-0.35,0.14-2.76,1.65-2.51,2.08c0.31,0.53,0.81,0.91,1.38,1.15c-0.47,0.51-0.52,1.35-0.11,1.91c0.13,0.19,0.31,0.35,0.39,0.56
				c0.21,0.64-0.61,1.2-0.57,1.87c0.05,0.85,1.42,1.29,1.23,2.12c-0.09,0.39-0.5,0.62-0.67,0.98c-0.41,0.87,0.73,1.74,0.69,2.7
				c-0.02,0.68-0.65,1.34-0.39,1.97c0.19,0.47,0.79,0.66,1.01,1.12c0.38,0.81-0.66,1.7-0.47,2.57c0.14,0.62,0.86,1.01,0.93,1.64
				c0.07,0.73-0.78,1.41-0.48,2.07c0.12,0.26,0.38,0.42,0.52,0.66c0.23,0.41,0.06,0.92,0.06,1.39c-0.01,1.27,1.26,2.25,2.53,2.37
				c1.26,0.12,2.49-0.38,3.66-0.88c-1.15-0.26-2.31-0.52-3.46-0.79c1.29-0.23,2.54-0.75,3.62-1.5c-1.3-0.13-2.6-0.26-3.9-0.38
				c1.5-0.51,2.99-1.02,4.49-1.53c-1.68-0.07-3.36-0.4-4.93-0.99c1.33-0.32,2.61-0.86,3.76-1.6c-1.46-0.14-2.91-0.28-4.36-0.43
				c1.26-1.05,2.79-1.76,4.41-2.05c-1.25-0.41-2.49-0.83-3.73-1.26c1.01-0.58,2.03-1.15,3.04-1.73c-0.51-0.69-1.29-1.18-2.14-1.34
				c0.86-0.38,1.6-1,2.13-1.77c-0.84-0.33-1.73-0.53-2.63-0.59c0.75-0.42,1.5-0.85,2.25-1.27c-0.76-0.28-1.52-0.56-2.28-0.84
				c0.34-0.69,1.78-0.84,1.45-1.54c-0.1-0.21-0.34-0.3-0.56-0.37c-0.82-0.26-1.66-0.42-2.51-0.49c0.72-0.53,1.45-1.06,2.17-1.59
				c-0.8-0.37-1.66-0.61-2.53-0.72C305.1,229.98,305.81,229.32,306.6,228.75z"/>
			<path class="st1" d="M310.39,232.63c-1.08-2.16-0.15-3.85-2.29-5.33c1.23,0.85,0.46,1.79,0.37,2.79
				c-0.08,0.95,0.58,1.67,0.66,2.57c0.09,1.04-0.57,1.83,0.13,2.8c0.34,0.47,0.78,0.9,0.87,1.47c0.11,0.69-0.34,1.44-0.03,2.07
				c0.15,0.29,0.44,0.51,0.48,0.83c0.06,0.48-0.47,0.86-0.47,1.34c-0.01,0.61,0.77,0.94,0.91,1.54c0.18,0.73-0.7,1.45-0.46,2.16
				c0.14,0.43,0.67,0.77,0.54,1.2c-0.05,0.15-0.17,0.27-0.26,0.39c-0.53,0.72-0.2,1.72-0.16,2.61c0.04,0.87-0.24,1.75-0.77,2.43
				c0.7-0.89,1.97-1.63,1.65-2.98c-0.07-0.3-0.21-0.58-0.23-0.89c-0.05-0.81,0.77-1.5,0.68-2.31c-0.07-0.6-0.64-1.07-0.64-1.68
				c0-0.38,0.23-0.73,0.33-1.1c0.32-1.2-0.77-2.37-0.65-3.6c0.09-0.98,0.9-2.09,0.25-2.83c-0.18-0.2-0.44-0.32-0.58-0.55
				c-0.32-0.51,0.13-1.17,0.11-1.77C310.83,233.39,310.58,233.01,310.39,232.63z"/>
			<path class="st1" d="M301.02,249.34c-2.03-0.54-5.02-0.65-6.59-2.1c-1.23-1.14-1.8-2.87-3.11-3.92c0.47,0.38,0.91,2.94,1.34,3.67
				c0.69,1.16,1.47,2.15,2.81,2.58C297.39,250.16,299.31,248.88,301.02,249.34z"/>
			<path class="st0" d="M237.88,255.48c-0.04,1.06-0.02,2.18,0.21,3.22c0.62-1.2,2.35-3.53,1.13-4.67
				c-1.12-1.05-3.81-0.29-4.79,0.59c-0.85,0.75-0.81,2.64-1.45,3.17c0.96-0.8,1.95-1.57,2.96-2.31c-0.56,0.81-0.84,1.8-0.79,2.77
				c0.01,0.3,0.16,0.68,0.45,0.65C236.08,257.6,236.87,256.43,237.88,255.48z"/>
			<path class="st1" d="M305.42,271c-0.21,1.07-0.12,2.18-0.25,3.27c-0.24,2.05-1.35,3.15-3.4,3.29c-1.23,0.08-2.62-0.02-2.61-1.62
				c0.01,0.84,0.05,1.71,0.29,2.52c0.65,2.22,3.62,3.26,5.55,1.87c0.47-0.34,0.84-0.82,1.14-1.33c1.29-2.21,1.76-5.12,0.83-7.54
				c-0.01,1.09-0.25,2.17-0.69,3.16C306.31,273.38,306.01,272.11,305.42,271z"/>
			<path class="st0" d="M312.46,278.87c0.21,3.27-1.89,6.24-2.31,9.49c0.27-2.6,0.54-5.21,0.81-7.81c-0.49,2.74-1.35,5.41-2.55,7.91
				c0.45-2.62,0.61-5.28,0.48-7.93c-1.12,5.03-2.11,9.47-5.29,13.66c-0.31,0.4-0.63,0.8-1.04,1.09c-1,0.69-2.32,0.6-3.52,0.49
				c-0.67-0.06-1.39-0.15-1.87-0.61c2.03,1.43,4.98,3.03,7.55,2.39c2.32-0.58,4.2-2.77,5.31-4.76
				C312.3,288.67,312.75,283.48,312.46,278.87z"/>
			<path class="st1" d="M312.54,260.51l1.82-1.1c0,0,1.61,5.23,1.9,17.32s-1.28,20.85-5.31,25.81c4.14-9.63,4.14-24.08,4.07-29.04
				C314.95,268.54,312.54,260.51,312.54,260.51z"/>
			<path class="st0" d="M278.79,282.81c0.82,5.47,2.76,10.76,5.65,15.48c-1.12-3.43-1.85-6.99-2.16-10.59
				c0.55,2.99,2.13,5.79,4.41,7.8c-1.91-3.15-3.06-6.75-3.32-10.43c0.88,1.64,1.76,3.27,2.64,4.91c-1.12-2.68-1.76-5.56-1.86-8.46
				L278.79,282.81z"/>
			<path class="st1" d="M309.29,261.28c-0.23,0.33-0.74,0.4-0.89,0.76c-0.2,0.46,0.31,0.89,0.63,1.28c0.43,0.53,0.56,1.24,0.58,1.92
				c0.02,0.73-0.1,1.51-0.57,2.06c-0.47,0.56-1.39,0.77-1.95,0.3c0.89-2.15,0.6-4.73-0.72-6.68c-0.08-0.12-0.17-0.25-0.15-0.39
				c0.02-0.13,0.13-0.22,0.23-0.3C307.16,259.71,310.31,259.81,309.29,261.28z"/>
			<path class="st0" d="M290.14,241.67c-2.27,5.41-0.88,12.28,2.3,17.07c-1.85-1.1-3.39-2.72-4.41-4.61
				c-1.36-2.52-1.22-4.84-0.68-7.53c0.17-0.85,0.22-1.56,0.62-2.35C288.45,243.29,289.77,242.55,290.14,241.67z"/>
			<path class="st1" d="M304.87,256.42c-0.35,0.56-0.39,1.3-0.11,1.9c0.16,0.35,0.49,0.68,0.88,0.64c0.3-0.03,0.54-0.27,0.67-0.54
				c0.35-0.74-0.09-1.73-0.87-1.97"/>
			<path class="st0" d="M232.22,278.07c0.47,3.12,5.06,2.95,7.33,3.05c1.69,0.07,3.19,0.53,4.86,0.78c1.73,0.27,3.79-0.33,5.4,0.01
				c-2.73-0.58-5.47-1.15-8.2-1.73c-1.75-0.37-3.55-0.76-5.05-1.74c-1.66-1.08-2.79-2.79-3.86-4.45
				C232.18,275.28,232.01,276.7,232.22,278.07z"/>
			<path class="st0" d="M177.08,256.95c0.02,2.02,0.48,4.04,1.39,5.84c-0.17-2.92,0.25-5.87,1.22-8.63
				c-0.71,2.03,0.17,5.97,0.94,7.96c0.58-2.67,1.15-5.33,1.73-8c-0.31,2.98,0.34,6.05,1.83,8.65c-2.08-3.64-0.24-12.68,2.28-15.68
				c-0.07,0.08-3.94-0.2-4.43-0.23c-0.29-0.02-0.6-0.03-0.87,0.08c-0.29,0.13-0.5,0.39-0.69,0.65
				C178.54,250.31,177.05,253.59,177.08,256.95z"/>
			<path class="st0" d="M193.26,220.84c-2.81-1.45-5.53-0.55-6.92,2.23c-4.33,8.64-7.62,17.59-10.33,26.86
				c0.46-1.56,2.9-3.42,3.79-4.93c2.48-4.23,3.28-8.56,4.99-13.08c0.65-1.71,1.51-3.36,1.86-5.03c0.66-1.27,1.33-2.54,2.03-3.79
				c0.51-0.91,1.35-1.94,2.35-1.66c-0.35,3.33-1.08,6.61-2.19,9.77C190.3,227.87,192.33,224.36,193.26,220.84z"/>
			<path class="st0" d="M194.86,163.04c0.06,0.12,0.14,0.25,0.23,0.39c-0.68-1.02,5.76-1.09,6.31-0.84c0.4-0.82,0.61-1.74,0.59-2.65
				C200.45,159.87,193.16,159.71,194.86,163.04z"/>
			<path class="st1" d="M195.78,164.38l1.36,0.98c1.52,0.19,3.1-0.08,4.48-0.77C199.68,164.52,197.73,164.45,195.78,164.38z"/>
			<path class="st0" d="M266.23,150.8c1.82-2.19,3.12-4.86,4.6-7.28c0.7-1.14,1.38-2.32,2.35-3.26c0.97-0.94,2.18-1.57,3.4-2.12
				c2.64-1.19,5.33-2.28,8-3.39c1.41-0.59,2.83-1.17,4.24-1.76c1.34-0.55,2.79-1.02,4.05-1.73c0.74-0.42,0.24-1.59-0.58-1.37
				c-1.51,0.41-2.98,1.17-4.43,1.77c-1.47,0.6-2.95,1.21-4.42,1.81c-2.73,1.11-5.54,2.09-8.2,3.36c-2.53,1.21-4.17,2.97-5.62,5.33
				c-1.57,2.56-3.42,5.21-4.38,8.07C265.06,150.77,265.85,151.26,266.23,150.8z"/>
			<path class="st0" d="M194.39,138.48c1.31,1.13,3.08,1.81,4.61,2.59c1.45,0.73,3.17,1.32,4.41,2.4c1.15,1,1.62,2.52,1.78,3.99
				c0.15,1.41,0,3.08,0.85,4.31c0.48,0.69,1.45,0.1,1.11-0.65c-0.65-1.43-0.41-3.07-0.69-4.59c-0.27-1.51-0.9-3.01-2.08-4.03
				c-1.25-1.08-2.88-1.71-4.37-2.38c-0.88-0.39-1.75-0.79-2.63-1.17c-0.88-0.37-1.74-0.81-2.68-0.98
				C194.42,137.92,194.14,138.26,194.39,138.48z"/>
			<path class="st0" d="M292.75,128.48c1.11,0.09,2.24,0.91,2.28,2.03c0.04,1.31-1.3,2.17-2.47,2.76c-1.23,0.62-2.47,1.24-3.7,1.86
				c-0.42,0.21,1.89,2.6,2.24,2.82c1.04,0.66,2.45,1.07,3.56,0.47c-0.79-0.87-1.96-1.44-2.85-2.27c-0.23-0.22-0.47-0.48-0.49-0.8
				c-0.02-0.4,0.33-0.75,0.71-0.89c0.38-0.14,0.8-0.14,1.19-0.21c1.97-0.36,3.13-2.36,4.03-4.15c0.28-0.55,0.71-1.19,1.32-1.11
				c0.54,0.07,0.83,0.68,0.92,1.21c0.42,2.43-1.13,4.73-2.59,6.72c5.23-1.54,4.73-8.85,1.59-12.03c-2.58-2.62-7.85-2.8-9.91,0.55
				c-0.86,1.4-1.18,3.07-1.21,4.71C288.38,129.27,291.42,128.37,292.75,128.48z"/>
			<path class="st0" d="M191.62,142.45c-0.55-0.12-0.99-0.65-1.13-1.21c-0.76-3.12,1.01-7.35,3.88-8.81
				c0.56-0.28,1.25-0.47,1.78-0.15c0.38,0.23,0.57,0.66,0.72,1.07c0.51,1.39,0.75,2.89,0.7,4.37c-0.68-0.32-1.39-0.58-2.11-0.79
				c-0.89-0.25-2-0.35-2.61,0.34c-1.74,1.98,2.19,3.57,3.42,4.1c-0.53-0.23-1.88,1.76-2.79,1.79c0.36-0.38,0.56-0.9,0.54-1.43
				c-0.73-0.16-1.33,0.65-2.07,0.73C191.85,142.49,191.73,142.48,191.62,142.45z"/>
		</g>
		<path class="st2" d="M177.08,184.37"/>
	</g>
	<path class="st1" d="M350.59,310.1c-0.62-1.83-1.3-3.68-1.95-5.42c-4.38,4.32-7.89,8.52-12.37,12.99c4.09-2.7,6.38-4.34,10.64-6.78
		c0.61,1.83,1.29,3.69,1.93,5.44c3.58-3.11,11.87-11.99,12.63-13.08C356.77,306.33,354.96,307.56,350.59,310.1z"/>
	<path class="st1" d="M126.93,310.1c0.62-1.83,1.3-3.68,1.96-5.42c4.38,4.32,7.89,8.52,12.37,12.99c-4.09-2.7-6.38-4.34-10.64-6.78
		c-0.61,1.83-1.29,3.69-1.93,5.44c-3.58-3.11-11.87-11.99-12.63-13.08C120.75,306.33,122.56,307.56,126.93,310.1z"/>
</g>
<g id="TEXTS">
	<path id="SVGID_x5F_1_x5F_" class="st3" d="M382.82,226.61c9.41-60.36-47.24-115.09-126.54-122.26
		c-79.3-7.17-151.22,35.96-160.63,96.31c-9.41,60.36,47.24,115.09,126.54,122.26C301.49,330.09,373.4,286.97,382.82,226.61z"/>
	<text class="st1 st4 st5">	<textPath  xlink:href="#SVGID_x5F_1_x5F_" startOffset="39.673%">
Motoruix	</textPath>
</text>
</g>
</svg>
