<svg width="135" height="22" viewBox="0 0 135 22" fill="none" xmlns="http://www.w3.org/2000/svg">
<path d="M0.512 22V5.76H20.952C21.6613 5.76 22.296 5.93733 22.856 6.292C23.416 6.628 23.864 7.076 24.2 7.636C24.536 8.196 24.704 8.82133 24.704 9.512V22H21.372V9.624C21.372 9.47467 21.316 9.35333 21.204 9.26C21.1107 9.148 20.9893 9.092 20.84 9.092H14.82C14.6893 9.092 14.568 9.148 14.456 9.26C14.3627 9.35333 14.316 9.47467 14.316 9.624V22H10.928V9.624C10.928 9.47467 10.8813 9.35333 10.788 9.26C10.6947 9.148 10.5733 9.092 10.424 9.092H4.376C4.24533 9.092 4.124 9.148 4.012 9.26C3.91867 9.35333 3.872 9.47467 3.872 9.624V22H0.512ZM31.5511 22C30.8604 22 30.2351 21.832 29.6751 21.496C29.1151 21.1413 28.6578 20.684 28.3031 20.124C27.9671 19.564 27.7991 18.9387 27.7991 18.248V9.512C27.7991 8.82133 27.9671 8.196 28.3031 7.636C28.6578 7.076 29.1151 6.628 29.6751 6.292C30.2351 5.93733 30.8604 5.76 31.5511 5.76H40.5391C41.2484 5.76 41.8831 5.93733 42.4431 6.292C43.0031 6.628 43.4511 7.076 43.7871 7.636C44.1231 8.196 44.2911 8.82133 44.2911 9.512V18.248C44.2911 18.9387 44.1231 19.564 43.7871 20.124C43.4511 20.684 43.0031 21.1413 42.4431 21.496C41.8831 21.832 41.2484 22 40.5391 22H31.5511ZM31.6631 18.668H40.4271C40.5764 18.668 40.6978 18.6213 40.7911 18.528C40.9031 18.416 40.9591 18.2853 40.9591 18.136V9.624C40.9591 9.47467 40.9031 9.35333 40.7911 9.26C40.6978 9.148 40.5764 9.092 40.4271 9.092H31.6631C31.5138 9.092 31.3831 9.148 31.2711 9.26C31.1778 9.35333 31.1311 9.47467 31.1311 9.624V18.136C31.1311 18.2853 31.1778 18.416 31.2711 18.528C31.3831 18.6213 31.5138 18.668 31.6631 18.668ZM50.4196 22C49.7289 22 49.0943 21.832 48.5156 21.496C47.9556 21.1413 47.5076 20.684 47.1716 20.124C46.8356 19.564 46.6676 18.9387 46.6676 18.248V0.691999H49.9996V5.76H56.4956V9.092H49.9996V18.136C49.9996 18.2853 50.0463 18.416 50.1396 18.528C50.2516 18.6213 50.3823 18.668 50.5316 18.668H56.4956V22H50.4196ZM62.4495 22C61.7589 22 61.1335 21.832 60.5735 21.496C60.0135 21.1413 59.5562 20.684 59.2015 20.124C58.8655 19.564 58.6975 18.9387 58.6975 18.248V9.512C58.6975 8.82133 58.8655 8.196 59.2015 7.636C59.5562 7.076 60.0135 6.628 60.5735 6.292C61.1335 5.93733 61.7589 5.76 62.4495 5.76H71.4375C72.1469 5.76 72.7815 5.93733 73.3415 6.292C73.9015 6.628 74.3495 7.076 74.6855 7.636C75.0215 8.196 75.1895 8.82133 75.1895 9.512V18.248C75.1895 18.9387 75.0215 19.564 74.6855 20.124C74.3495 20.684 73.9015 21.1413 73.3415 21.496C72.7815 21.832 72.1469 22 71.4375 22H62.4495ZM62.5615 18.668H71.3255C71.4749 18.668 71.5962 18.6213 71.6895 18.528C71.8015 18.416 71.8575 18.2853 71.8575 18.136V9.624C71.8575 9.47467 71.8015 9.35333 71.6895 9.26C71.5962 9.148 71.4749 9.092 71.3255 9.092H62.5615C62.4122 9.092 62.2815 9.148 62.1695 9.26C62.0762 9.35333 62.0295 9.47467 62.0295 9.624V18.136C62.0295 18.2853 62.0762 18.416 62.1695 18.528C62.2815 18.6213 62.4122 18.668 62.5615 18.668ZM77.5927 22V9.512C77.5927 8.82133 77.7607 8.196 78.0967 7.636C78.4514 7.076 78.9087 6.628 79.4687 6.292C80.0474 5.93733 80.6727 5.76 81.3447 5.76H90.3887V9.092H81.4567C81.3074 9.092 81.1767 9.148 81.0647 9.26C80.9714 9.35333 80.9247 9.47467 80.9247 9.624V22H77.5927ZM96.193 22C95.5024 22 94.8677 21.832 94.289 21.496C93.729 21.1413 93.281 20.684 92.945 20.124C92.609 19.564 92.441 18.9387 92.441 18.248V5.76H95.773V18.136C95.773 18.2853 95.8197 18.416 95.913 18.528C96.025 18.6213 96.1557 18.668 96.305 18.668H105.069C105.218 18.668 105.34 18.6213 105.433 18.528C105.545 18.416 105.601 18.2853 105.601 18.136V5.76H108.933V18.248C108.933 18.9387 108.765 19.564 108.429 20.124C108.093 20.684 107.645 21.1413 107.085 21.496C106.525 21.832 105.89 22 105.181 22H96.193ZM111.882 22V5.76H115.214V22H111.882ZM111.882 3.8V0.439999H115.214V3.8H111.882ZM117.593 22V21.244L123.753 13.74L117.593 6.516V5.76H121.345L125.937 11.164L130.501 5.76H134.253V6.516L128.093 13.74L134.281 21.244V22H130.529L125.937 16.372L121.345 22H117.593Z" fill="#CCCCCC"/>
</svg>
