<svg width="214" height="42" viewBox="0 0 214 42" fill="none" xmlns="http://www.w3.org/2000/svg">
<path d="M17.674 36.494C17.3367 36.9233 17.076 37.4907 16.892 38.196C16.7387 38.932 16.6927 39.5607 16.754 40.082C16.5087 39.7447 16.3247 39.2847 16.202 38.702C16.11 38.15 16.11 37.6287 16.202 37.138C16.018 37.6593 15.7573 38.1807 15.42 38.702C15.1133 39.254 14.776 39.668 14.408 39.944C14.5307 39.392 14.5153 38.702 14.362 37.874C14.2087 37.0767 13.9633 36.448 13.626 35.988C13.534 36.6013 13.258 37.2607 12.798 37.966C12.338 38.702 11.8473 39.2387 11.326 39.576C11.6327 39.024 11.7707 38.3033 11.74 37.414C11.74 36.5553 11.5867 35.8653 11.28 35.344C11.1267 35.8347 10.82 36.3713 10.36 36.954C9.9 37.5367 9.44 37.92 8.98 38.104C9.256 37.6747 9.42467 37.092 9.486 36.356C9.54733 35.62 9.532 35.0067 9.44 34.516C8.82667 34.608 8.198 34.93 7.554 35.482C6.91 36.034 6.41933 36.5553 6.082 37.046C6.05133 36.4633 6.14333 35.758 6.358 34.93C6.57267 34.102 6.87933 33.4733 7.278 33.044C6.57267 32.952 5.714 33.044 4.702 33.32C3.72067 33.596 2.98467 33.9947 2.494 34.516C2.586 33.8107 2.93867 33.044 3.552 32.216C4.16533 31.388 4.76333 30.7747 5.346 30.376C4.91667 30.284 4.41067 30.284 3.828 30.376C3.24533 30.468 2.77 30.652 2.402 30.928C2.678 30.56 3.07667 30.238 3.598 29.962C4.11933 29.6553 4.59467 29.502 5.024 29.502C4.472 29.1033 3.72067 28.8733 2.77 28.812C1.81933 28.7507 1.00667 28.7967 0.332 28.95C0.853333 28.49 1.574 28.122 2.494 27.846C3.38333 27.57 4.16533 27.478 4.84 27.57C4.71733 26.9873 4.71733 26.2973 4.84 25.5C4.96267 24.7027 5.208 24.0587 5.576 23.568C5.392 24.1507 5.37667 24.8407 5.53 25.638C5.68333 26.4353 5.944 27.0793 6.312 27.57C6.37333 27.202 6.55733 26.742 6.864 26.19C7.17067 25.638 7.462 25.2547 7.738 25.04C7.79933 25.408 7.98333 25.868 8.29 26.42C8.59667 26.972 8.90333 27.3553 9.21 27.57C9.51667 27.2327 9.73133 26.742 9.854 26.098C9.97667 25.454 10.0073 24.8867 9.946 24.396C10.1913 24.7333 10.3907 25.178 10.544 25.73C10.6973 26.2513 10.7587 26.7267 10.728 27.156C10.8813 26.4507 11.1727 25.7607 11.602 25.086C11.4487 24.6873 11.326 24.2887 11.234 23.89C11.1727 23.4607 11.1727 23.0927 11.234 22.786C10.8047 22.97 10.3447 23.292 9.854 23.752C9.394 24.1813 9.05667 24.6107 8.842 25.04C8.71933 24.6413 8.68867 24.1507 8.75 23.568C8.842 22.9547 8.96467 22.4487 9.118 22.05C8.90333 22.4487 8.58133 22.8627 8.152 23.292C7.72267 23.6907 7.30867 23.9513 6.91 24.074C7.278 23.7673 7.6 23.3227 7.876 22.74C8.18267 22.1573 8.336 21.6207 8.336 21.13C8.12133 21.59 7.75333 22.0347 7.232 22.464C6.71067 22.8933 6.20467 23.1693 5.714 23.292C6.14333 23.0467 6.542 22.648 6.91 22.096C7.30867 21.544 7.554 21.0227 7.646 20.532C7.186 20.8693 6.55733 21.1453 5.76 21.36C4.99333 21.5747 4.334 21.636 3.782 21.544C4.27267 21.2373 4.76333 20.7773 5.254 20.164C5.77533 19.52 6.082 18.922 6.174 18.37C5.714 18.6767 5.13133 18.922 4.426 19.106C3.72067 19.2593 3.092 19.29 2.54 19.198C3.092 19.198 3.69 19.0293 4.334 18.692C5.00867 18.324 5.53 17.9253 5.898 17.496C5.46867 17.5267 4.94733 17.45 4.334 17.266C3.72067 17.082 3.26067 16.852 2.954 16.576C3.38333 16.5147 3.85867 16.3153 4.38 15.978C4.932 15.6407 5.31533 15.288 5.53 14.92C4.91667 15.0427 4.21133 14.9813 3.414 14.736C2.61667 14.4907 1.988 14.1687 1.528 13.77C2.11067 13.9233 2.80067 13.9693 3.598 13.908C4.426 13.816 5.116 13.6167 5.668 13.31C5.392 12.7887 4.932 12.2673 4.288 11.746C3.644 11.194 3.03067 10.8413 2.448 10.688C2.96933 10.412 3.65933 10.2893 4.518 10.32C5.37667 10.3507 6.036 10.4733 6.496 10.688C6.00533 10.4733 5.484 10.136 4.932 9.676C4.41067 9.216 4.058 8.74067 3.874 8.25C4.27267 8.64867 4.794 9.00133 5.438 9.308C6.082 9.584 6.68 9.75266 7.232 9.814C6.89467 9.446 6.60333 8.90933 6.358 8.204C6.11267 7.49866 6.00533 6.916 6.036 6.456C6.34267 6.824 6.84867 7.16133 7.554 7.468C8.25933 7.744 8.85733 7.85133 9.348 7.79C9.01067 7.39133 8.73467 6.87 8.52 6.226C8.336 5.55133 8.21333 4.87666 8.152 4.202C8.12133 3.49666 8.16733 2.88333 8.29 2.362C8.44333 2.88333 8.71933 3.42 9.118 3.972C9.54733 4.524 10.0227 5.01466 10.544 5.444C11.096 5.87333 11.6173 6.18 12.108 6.364C12.384 5.59733 12.43 4.67733 12.246 3.604C12.0927 2.53067 11.8167 1.64133 11.418 0.935998C11.9393 1.27333 12.4147 1.79466 12.844 2.5C13.2733 3.20533 13.58 3.926 13.764 4.662C13.7947 3.558 14.0093 2.65333 14.408 1.948C14.5 2.5 14.7147 3.12867 15.052 3.834C15.3893 4.53933 15.788 5.06067 16.248 5.398C16.6467 5.03 16.984 4.46266 17.26 3.696C17.536 2.89866 17.6433 2.23933 17.582 1.718C17.9807 2.086 18.3333 2.638 18.64 3.374C18.9773 4.07933 19.1613 4.708 19.192 5.26C19.56 4.86133 19.8973 4.294 20.204 3.558C20.5107 2.822 20.6487 2.178 20.618 1.626C20.9553 2.05533 21.2007 2.66866 21.354 3.466C21.538 4.26333 21.5533 4.92267 21.4 5.444C21.8293 5.168 22.2433 4.72333 22.642 4.11C23.0407 3.49667 23.286 2.92933 23.378 2.408C23.6847 2.83733 23.8687 3.42 23.93 4.156C24.022 4.892 24.022 5.52066 23.93 6.042C24.6047 5.674 25.2947 5.076 26 4.248C26.736 3.42 27.2113 2.62267 27.426 1.856C27.6407 2.34666 27.7633 2.92933 27.794 3.604C27.8247 4.27866 27.7787 4.95333 27.656 5.628C27.5333 6.30267 27.3187 6.85467 27.012 7.284C27.7173 7.008 28.4533 6.548 29.22 5.904C30.0173 5.22933 30.6 4.57 30.968 3.926C31.06 4.662 30.9373 5.536 30.6 6.548C30.2933 7.52933 29.8793 8.28066 29.358 8.802C30.002 8.86333 30.7687 8.756 31.658 8.48C32.578 8.204 33.2987 7.86667 33.82 7.468C33.82 7.89733 33.6973 8.388 33.452 8.94C33.2373 9.492 32.9613 10.0133 32.624 10.504C32.2867 10.964 31.934 11.3167 31.566 11.562C32.1487 11.2553 32.8847 11.1327 33.774 11.194C34.694 11.2553 35.4453 11.4547 36.028 11.792C35.384 11.8227 34.6633 12.068 33.866 12.528C33.0993 12.988 32.5167 13.4633 32.118 13.954C32.0567 14.2913 31.8267 14.7207 31.428 15.242C31.0293 15.7327 30.6767 16.0393 30.37 16.162C30.278 15.8553 30.0327 15.4413 29.634 14.92C29.266 14.3987 28.9287 14.0767 28.622 13.954C28.1927 14.2913 27.84 14.8433 27.564 15.61C27.288 16.346 27.15 16.99 27.15 17.542C26.9353 17.3273 26.7207 17.036 26.506 16.668C26.6593 17.0053 26.7667 17.358 26.828 17.726C26.8893 18.0633 26.9047 18.3393 26.874 18.554C27.3033 18.4007 27.7633 18.0633 28.254 17.542C28.7447 17.0207 29.0667 16.5453 29.22 16.116C29.4347 16.5453 29.542 17.1127 29.542 17.818C29.5727 18.5233 29.4807 19.0907 29.266 19.52C29.91 19.336 30.5847 18.9527 31.29 18.37C32.026 17.7567 32.532 17.1587 32.808 16.576C32.8387 17.22 32.7007 17.9867 32.394 18.876C32.0873 19.7653 31.704 20.44 31.244 20.9C31.6733 20.4093 32.302 19.98 33.13 19.612C33.958 19.2133 34.694 19.014 35.338 19.014C34.7553 19.3207 34.1727 19.8267 33.59 20.532C33.0073 21.2067 32.624 21.866 32.44 22.51C33.084 22.142 33.912 21.9427 34.924 21.912C35.936 21.8507 36.81 21.912 37.546 22.096C36.81 22.188 35.982 22.4947 35.062 23.016C34.1727 23.5373 33.544 24.12 33.176 24.764C33.6973 24.7947 34.3107 24.9633 35.016 25.27C35.752 25.5767 36.2733 25.9447 36.58 26.374C36.0893 26.374 35.476 26.5427 34.74 26.88C34.004 27.2173 33.4827 27.6007 33.176 28.03C33.6053 28.6433 34.2493 29.226 35.108 29.778C35.9667 30.33 36.764 30.6827 37.5 30.836C36.8253 31.112 35.9667 31.2193 34.924 31.158C33.8813 31.066 33.038 30.836 32.394 30.468C32.4553 30.9893 32.7007 31.572 33.13 32.216C33.5593 32.86 33.9733 33.3507 34.372 33.688C33.8507 33.78 33.222 33.7187 32.486 33.504C31.75 33.2587 31.1673 32.9827 30.738 32.676C30.7993 33.3813 31.0907 34.1327 31.612 34.93C32.164 35.6967 32.7467 36.2793 33.36 36.678C32.6853 36.4327 31.98 36.0033 31.244 35.39C30.5387 34.7767 30.048 34.148 29.772 33.504C29.772 34.24 30.002 35.0373 30.462 35.896C30.922 36.7547 31.428 37.4293 31.98 37.92C31.3053 37.6133 30.6307 37.1073 29.956 36.402C29.2813 35.666 28.8673 34.9453 28.714 34.24C28.438 34.7307 28.3 35.4207 28.3 36.31C28.3307 37.1993 28.4533 37.92 28.668 38.472C28.116 38.2573 27.5027 37.8587 26.828 37.276C26.184 36.6933 25.7393 36.1413 25.494 35.62C25.8007 36.264 26.0307 37.046 26.184 37.966C26.3373 38.9167 26.276 39.7293 26 40.404C26.0613 39.6987 25.8773 38.9167 25.448 38.058C25.0187 37.1993 24.5587 36.5093 24.068 35.988C23.7 36.356 23.4087 36.908 23.194 37.644C22.9793 38.4107 22.8873 39.0547 22.918 39.576C22.458 39.3307 21.998 38.8707 21.538 38.196C21.1087 37.552 20.8633 36.9847 20.802 36.494C20.342 37.138 20.0353 37.9967 19.882 39.07C19.7593 40.1433 19.8207 41.0633 20.066 41.83C19.6367 41.1553 19.238 40.2967 18.87 39.254C18.5327 38.2113 18.134 37.2913 17.674 36.494ZM19.698 14.046C19.6367 14.0767 19.56 14.1073 19.468 14.138C19.6827 14.598 19.8513 15.15 19.974 15.794C20.0967 16.4073 20.0967 16.9133 19.974 17.312C20.2193 17.036 20.434 16.6833 20.618 16.254C20.526 16.4073 20.434 16.5607 20.342 16.714C20.0967 16.2233 19.974 15.564 19.974 14.736C20.0047 13.8773 20.1273 13.2027 20.342 12.712C19.974 12.896 19.6367 13.2793 19.33 13.862H19.376C19.4987 13.9233 19.606 13.9847 19.698 14.046ZM22.964 14.184C22.8107 14.7053 22.8107 15.334 22.964 16.07C23.1173 16.806 23.3473 17.3887 23.654 17.818C24.022 17.6953 24.4513 17.3887 24.942 16.898C25.4327 16.4073 25.7393 15.978 25.862 15.61C25.954 15.6713 26.046 15.7787 26.138 15.932C25.862 15.288 25.7087 14.7053 25.678 14.184C25.6167 14.92 25.402 15.5333 25.034 16.024C25.0647 15.7173 25.0187 15.3647 24.896 14.966C24.7733 14.5367 24.6047 14.1993 24.39 13.954C24.114 14.322 23.9147 14.8127 23.792 15.426C23.7 16.0393 23.7153 16.5607 23.838 16.99C23.6233 16.5913 23.4393 16.1007 23.286 15.518C23.1633 14.9047 23.1633 14.3833 23.286 13.954C22.9793 14.0767 22.6573 14.2607 22.32 14.506C21.9827 14.7513 21.6607 15.0427 21.354 15.38C21.4153 15.7787 21.4307 16.208 21.4 16.668C21.5533 16.208 21.768 15.748 22.044 15.288C22.3507 14.828 22.6573 14.46 22.964 14.184ZM18.318 14.736C18.2873 14.828 18.272 14.9047 18.272 14.966C18.3947 14.8127 18.5173 14.6747 18.64 14.552C18.5173 14.6133 18.41 14.6747 18.318 14.736ZM16.57 16.3C16.9993 16.1467 17.49 15.794 18.042 15.242C18.0113 15.15 17.9653 15.0733 17.904 15.012C17.2907 15.4413 16.846 15.8707 16.57 16.3ZM15.42 26.236C15.5427 26.512 15.6193 26.8953 15.65 27.386C15.6807 27.846 15.6347 28.2293 15.512 28.536C15.8493 28.3827 16.1867 28.1067 16.524 27.708C16.892 27.3093 17.1373 26.926 17.26 26.558C17.3827 27.018 17.4133 27.5393 17.352 28.122C17.4747 27.8153 17.6433 27.524 17.858 27.248C18.0727 26.972 18.2873 26.7727 18.502 26.65C18.4407 26.926 18.456 27.2633 18.548 27.662C18.6707 27.294 18.7167 26.834 18.686 26.282C18.3793 26.2207 18.1033 26.1593 17.858 26.098C18.1033 26.0367 18.364 25.9753 18.64 25.914C18.5787 25.3007 18.456 24.7793 18.272 24.35C18.1493 24.8407 17.8427 25.408 17.352 26.052C16.8613 26.696 16.386 27.1253 15.926 27.34C15.9567 26.8493 15.8187 26.2207 15.512 25.454C15.236 24.6873 14.9293 24.1353 14.592 23.798C14.2853 23.9207 13.902 24.166 13.442 24.534C13.0127 24.8713 12.66 25.224 12.384 25.592C12.5373 25.96 12.7213 26.328 12.936 26.696C13.1507 27.064 13.3653 27.3553 13.58 27.57C13.8867 27.5393 14.2393 27.386 14.638 27.11C15.0367 26.8033 15.2973 26.512 15.42 26.236ZM21.86 25.224C21.6453 25.3773 21.446 25.5613 21.262 25.776C21.3233 25.776 21.3847 25.7913 21.446 25.822C21.5687 25.5767 21.7067 25.3773 21.86 25.224ZM19.376 29.41C19.192 28.6433 19.2533 27.8307 19.56 26.972C19.56 26.88 19.56 26.7573 19.56 26.604C19.4987 26.5733 19.422 26.5427 19.33 26.512C19.0847 27.064 18.824 27.4627 18.548 27.708C18.732 28.4747 19.008 29.042 19.376 29.41ZM20.894 27.662C20.894 27.5393 20.9093 27.432 20.94 27.34C20.756 27.2173 20.572 27.11 20.388 27.018C20.2653 27.2327 20.158 27.4473 20.066 27.662C20.3113 28.3673 20.6333 28.8887 21.032 29.226C21.1547 28.7353 21.17 28.1373 21.078 27.432C21.0167 27.4933 20.9553 27.57 20.894 27.662ZM43.1702 36.908C42.8636 37.184 42.5569 37.5827 42.2502 38.104C41.9742 38.6253 41.8056 39.1007 41.7442 39.53C41.5296 39.1927 41.3916 38.702 41.3302 38.058C41.2996 37.4447 41.3762 36.9387 41.5602 36.54C41.3456 36.908 40.9776 37.322 40.4562 37.782C39.9349 38.242 39.4596 38.518 39.0302 38.61C39.2142 38.1807 39.3216 37.6287 39.3522 36.954C39.3829 36.2793 39.2909 35.7427 39.0762 35.344C38.4936 35.436 37.8496 35.6967 37.1442 36.126C36.4389 36.5553 35.9329 37.0153 35.6262 37.506C35.6876 37.0153 35.8562 36.4787 36.1322 35.896C36.4082 35.3133 36.7302 34.8073 37.0982 34.378C36.7302 34.7153 36.2856 34.9913 35.7642 35.206C35.2736 35.4207 34.7982 35.528 34.3382 35.528C34.8596 35.4053 35.3809 35.0987 35.9022 34.608C36.4542 34.1173 36.8529 33.642 37.0982 33.182C36.6996 33.3047 36.1782 33.3507 35.5342 33.32C34.8902 33.2587 34.3842 33.1207 34.0162 32.906C34.4149 32.7833 34.8596 32.5227 35.3502 32.124C35.8409 31.6947 36.1782 31.2807 36.3622 30.882C35.9636 30.4833 35.3656 30.1767 34.5682 29.962C33.7709 29.7473 33.0962 29.686 32.5442 29.778C33.0349 29.4713 33.6636 29.226 34.4302 29.042C35.1969 28.858 35.8562 28.8273 36.4082 28.95C35.9789 28.8273 35.5342 28.5667 35.0742 28.168C34.5836 27.7387 34.2309 27.3247 34.0162 26.926C34.3842 27.1407 34.8902 27.2633 35.5342 27.294C36.2089 27.294 36.7456 27.2173 37.1442 27.064C37.1136 26.604 36.9296 26.098 36.5922 25.546C36.2549 24.9633 35.9022 24.534 35.5342 24.258C35.9942 24.258 36.5309 24.3807 37.1442 24.626C37.7576 24.8713 38.2176 25.178 38.5242 25.546C38.1562 25.0553 37.8956 24.3653 37.7422 23.476C37.6196 22.556 37.6349 21.8047 37.7882 21.222C38.0949 21.7433 38.5856 22.3107 39.2602 22.924C39.9656 23.5067 40.6096 23.8593 41.1922 23.982C41.2229 23.7673 41.3762 23.4607 41.6522 23.062C41.9282 22.6327 42.1582 22.372 42.3422 22.28C42.4649 22.4027 42.7562 22.5713 43.2162 22.786C43.6762 22.97 44.0136 23.0467 44.2282 23.016C44.4429 22.74 44.6116 22.326 44.7342 21.774C44.8876 21.222 44.9182 20.7773 44.8262 20.44C45.0102 20.532 45.1942 20.6853 45.3782 20.9C45.5929 21.1147 45.7769 21.3447 45.9302 21.59C45.7769 20.9153 45.5162 20.4093 45.1482 20.072C44.9029 20.256 44.6729 20.5627 44.4582 20.992C44.2436 21.4213 44.1209 21.7893 44.0902 22.096C43.8449 21.912 43.5996 21.6053 43.3542 21.176C43.1089 20.7467 42.9862 20.3787 42.9862 20.072C42.9862 20.5013 42.8176 21.0227 42.4802 21.636C42.1736 22.2493 41.8516 22.694 41.5142 22.97C41.5449 22.5407 41.3916 22.0193 41.0542 21.406C40.7476 20.762 40.4256 20.3173 40.0882 20.072C39.9349 20.3173 39.6436 20.5627 39.2142 20.808C38.7849 21.0533 38.4322 21.1913 38.1562 21.222C38.2789 20.946 38.3096 20.5627 38.2482 20.072C38.2176 19.5813 38.1256 19.2133 37.9722 18.968C37.9109 18.6 37.7269 18.1553 37.4202 17.634C37.1136 17.082 36.8069 16.714 36.5002 16.53C36.8376 16.4073 37.3129 16.346 37.9262 16.346C38.5396 16.346 39.0149 16.438 39.3522 16.622C39.4136 16.2233 39.3522 15.7633 39.1682 15.242C38.9842 14.69 38.7542 14.2913 38.4782 14.046C38.8462 14.0767 39.2756 14.2147 39.7662 14.46C40.2876 14.7053 40.6709 14.9813 40.9162 15.288C41.0082 15.012 41.0082 14.6593 40.9162 14.23C40.8242 13.77 40.7016 13.4173 40.5482 13.172C40.7629 13.2333 40.9929 13.356 41.2382 13.54C41.5142 13.724 41.7442 13.9233 41.9282 14.138C41.6522 13.7087 41.4376 13.218 41.2842 12.666C41.1309 12.114 41.1002 11.6233 41.1922 11.194C41.2229 11.7153 41.4222 12.2827 41.7902 12.896C42.1582 13.4787 42.5722 13.908 43.0322 14.184C42.8176 13.6013 42.7102 12.8807 42.7102 12.022C42.7409 11.1327 42.9096 10.4273 43.2162 9.906C43.3389 10.5193 43.6456 11.1787 44.1362 11.884C44.6576 12.5893 45.1636 13.0953 45.6542 13.402C45.5929 12.9113 45.6849 12.2827 45.9302 11.516C46.1756 10.7187 46.4822 10.136 46.8502 9.768C46.9422 10.2893 47.1876 10.8873 47.5862 11.562C47.9849 12.2367 48.3836 12.7427 48.7822 13.08C48.7209 12.7733 48.7516 12.2213 48.8742 11.424C48.9969 10.6267 49.1656 9.75267 49.3802 8.802C49.5949 7.85133 49.8249 6.99266 50.0702 6.226C50.3156 5.45933 50.5456 4.95333 50.7602 4.708C50.6682 5.01467 50.6529 5.56667 50.7142 6.364C50.8062 7.16133 50.9289 8.03533 51.0822 8.986C51.2356 9.93667 51.4042 10.8107 51.5882 11.608C51.7722 12.4053 51.9409 12.942 52.0942 13.218C52.5542 12.942 53.0142 12.482 53.4742 11.838C53.9649 11.1633 54.2409 10.5653 54.3022 10.044C54.6396 10.4427 54.8849 11.0407 55.0382 11.838C55.1916 12.6353 55.2376 13.2947 55.1762 13.816C55.3909 13.264 55.8509 12.6967 56.5562 12.114C57.2922 11.5007 57.9516 11.1173 58.5342 10.964C58.1969 11.4853 58.0129 12.2213 57.9822 13.172C57.9516 14.092 58.0436 14.828 58.2582 15.38C58.5036 14.9507 58.9176 14.552 59.5002 14.184C60.1136 13.816 60.6656 13.6167 61.1562 13.586C60.7882 13.8927 60.4202 14.3373 60.0522 14.92C59.7149 15.5027 59.5156 16.0393 59.4542 16.53C59.7302 16.162 60.1289 15.84 60.6502 15.564C61.2022 15.2573 61.7082 15.1193 62.1682 15.15C61.7389 15.334 61.3096 15.6253 60.8802 16.024C60.4509 16.4227 60.1596 16.8367 60.0062 17.266C60.5276 16.898 61.2022 16.6067 62.0302 16.392C62.8889 16.1773 63.6249 16.1313 64.2382 16.254C63.6249 16.3767 62.9656 16.714 62.2602 17.266C61.5549 17.7873 61.0796 18.3393 60.8342 18.922C61.1409 18.8607 61.5396 18.9067 62.0302 19.06C62.5209 19.1827 62.8889 19.3513 63.1342 19.566C62.8276 19.658 62.4749 19.8727 62.0762 20.21C61.6776 20.5167 61.4169 20.808 61.2942 21.084C61.6316 21.36 62.0916 21.5747 62.6742 21.728C63.2569 21.8813 63.7629 21.9273 64.1922 21.866C63.8549 22.142 63.4102 22.4027 62.8582 22.648C62.3062 22.8627 61.8156 22.9547 61.3862 22.924C61.8462 22.924 62.3982 23.1233 63.0422 23.522C63.6862 23.9207 64.1462 24.304 64.4222 24.672C63.9622 24.7027 63.4102 24.9173 62.7662 25.316C62.1222 25.684 61.6622 26.052 61.3862 26.42C61.8156 26.42 62.3369 26.5887 62.9502 26.926C63.5636 27.2633 63.9929 27.616 64.2382 27.984C63.8089 27.984 63.2876 28.168 62.6742 28.536C62.0916 28.8733 61.6622 29.1953 61.3862 29.502C61.7849 29.9007 62.3676 30.284 63.1342 30.652C63.9009 31.02 64.5602 31.1887 65.1122 31.158C64.7749 31.618 64.2076 32.0167 63.4102 32.354C62.6129 32.6913 61.9382 32.8447 61.3862 32.814C61.8462 33.3047 62.5209 33.734 63.4102 34.102C64.3302 34.4393 65.1276 34.5467 65.8022 34.424C65.2809 34.8533 64.5756 35.2213 63.6862 35.528C62.7969 35.8347 62.0149 35.988 61.3402 35.988C61.3096 36.2947 61.3556 36.6627 61.4782 37.092C61.6316 37.5213 61.8156 37.8587 62.0302 38.104C61.7236 37.9813 61.4016 37.7667 61.0642 37.46C60.7576 37.1533 60.5429 36.8467 60.4202 36.54C60.4202 36.908 60.2516 37.3373 59.9142 37.828C59.6076 38.3493 59.3162 38.7327 59.0402 38.978C59.0096 38.61 58.8562 38.15 58.5802 37.598C58.3042 37.0767 57.9976 36.724 57.6602 36.54C57.7522 37.184 57.6296 37.9507 57.2922 38.84C56.9856 39.76 56.6022 40.4347 56.1422 40.864C56.1729 40.22 56.0349 39.438 55.7282 38.518C55.4216 37.6287 55.0382 36.9693 54.5782 36.54C54.5782 37.0613 54.3942 37.644 54.0262 38.288C53.6889 38.9627 53.3362 39.4687 52.9682 39.806C53.0296 39.3153 52.9682 38.702 52.7842 37.966C52.6002 37.2607 52.3396 36.7087 52.0022 36.31C51.8182 36.218 51.6189 36.1413 51.4042 36.08C51.4042 36.3253 51.4502 36.5093 51.5422 36.632C51.1436 36.6013 50.6836 36.4173 50.1622 36.08C50.0702 36.08 49.9936 36.0953 49.9322 36.126C49.9936 36.0953 50.0396 36.0647 50.0702 36.034C49.8556 35.85 49.6869 35.6967 49.5642 35.574C49.5029 36.126 49.5642 36.7853 49.7482 37.552C49.9629 38.3493 50.2849 38.9473 50.7142 39.346C50.1929 39.1313 49.6562 38.7173 49.1042 38.104C48.5829 37.5213 48.2456 36.954 48.0922 36.402C48.2762 37.0153 48.2762 37.7973 48.0922 38.748C47.9082 39.7293 47.6322 40.496 47.2642 41.048C47.1416 40.3733 46.7582 39.622 46.1142 38.794C45.5009 37.966 44.5196 37.3373 43.1702 36.908ZM48.3222 20.486C48.0156 20.5167 47.6169 20.44 47.1262 20.256C47.6169 20.9613 47.8469 21.6667 47.8162 22.372C47.9696 22.28 48.1689 22.096 48.4142 21.82C48.6596 21.5133 48.8436 21.2373 48.9662 20.992C48.5062 20.9307 48.1229 20.8233 47.8162 20.67C48.1842 20.67 48.5982 20.6087 49.0582 20.486L49.0122 20.394L49.1042 20.44C48.9509 19.704 48.7362 19.152 48.4602 18.784C48.3682 18.968 48.2916 19.2593 48.2302 19.658C48.1996 20.026 48.2302 20.302 48.3222 20.486ZM46.6662 20.026C46.7276 20.302 46.7122 20.6393 46.6202 21.038C46.5282 21.4367 46.3902 21.774 46.2062 22.05C46.2982 22.234 46.3596 22.418 46.3902 22.602C46.5742 22.2953 46.6969 21.8967 46.7582 21.406C46.8502 20.9153 46.8502 20.4707 46.7582 20.072L46.6662 20.026ZM48.3682 31.112C48.2762 30.836 48.2456 30.514 48.2762 30.146C48.3069 29.7473 48.3836 29.4253 48.5062 29.18C48.5676 29.4253 48.7056 29.7167 48.9202 30.054C49.1656 30.3913 49.3956 30.6213 49.6102 30.744C49.6716 30.6213 49.6869 30.422 49.6562 30.146C49.6562 29.8393 49.6256 29.6247 49.5642 29.502C49.8402 29.41 50.1929 29.4253 50.6222 29.548C50.3462 29.4253 50.0702 29.2567 49.7942 29.042C49.5489 28.8273 49.3649 28.6127 49.2422 28.398C49.4876 28.5513 49.8096 28.6433 50.2082 28.674C50.6069 28.7047 50.9442 28.674 51.2202 28.582C51.1282 28.4287 50.9596 28.26 50.7142 28.076C50.4996 27.892 50.3002 27.8 50.1162 27.8C50.2389 27.708 50.3922 27.616 50.5762 27.524C50.5149 27.4627 50.4689 27.386 50.4382 27.294C50.3156 27.2633 50.2082 27.2327 50.1162 27.202C50.1162 27.202 50.1929 27.1867 50.3462 27.156C50.3156 27.0947 50.2696 26.972 50.2082 26.788C50.0856 27.0027 50.0089 27.3093 49.9782 27.708C49.9476 28.076 49.9782 28.3827 50.0702 28.628C49.8249 28.4747 49.6102 28.2293 49.4262 27.892C49.2729 27.5547 49.1809 27.248 49.1502 26.972C49.0276 27.2173 48.9509 27.524 48.9202 27.892C48.8896 28.26 48.9202 28.582 49.0122 28.858C48.4909 28.4287 48.1996 27.8767 48.1382 27.202C48.0462 27.3553 47.9542 27.6007 47.8622 27.938C47.8009 28.2447 47.7856 28.49 47.8162 28.674C47.6322 28.6433 47.3869 28.5513 47.0802 28.398C46.8042 28.214 46.6202 28.0453 46.5282 27.892C46.5589 28.1067 46.6509 28.352 46.8042 28.628C46.9882 28.904 47.1722 29.1033 47.3562 29.226C47.1416 29.2567 46.8656 29.226 46.5282 29.134C46.2216 29.042 45.9916 28.9347 45.8382 28.812C45.9609 28.9347 46.1296 29.0573 46.3442 29.18C46.5896 29.3027 46.8042 29.3487 46.9882 29.318C46.8656 29.4407 46.7122 29.5327 46.5282 29.594C46.7736 29.594 46.9576 29.6093 47.0802 29.64C46.9882 29.7627 46.9116 29.9773 46.8502 30.284C46.8196 30.56 46.8196 30.7747 46.8502 30.928C47.0649 30.8053 47.2489 30.5907 47.4022 30.284C47.5556 29.9773 47.6476 29.7167 47.6782 29.502C47.8316 29.686 47.9389 29.9467 48.0002 30.284C48.0922 30.5907 48.2149 30.8667 48.3682 31.112ZM66.2195 34.286C65.9741 34.102 65.6521 33.9333 65.2535 33.78C64.8548 33.6267 64.5021 33.5807 64.1955 33.642C64.4408 33.458 64.7628 33.2893 65.1615 33.136C65.5601 32.9827 65.9128 32.9367 66.2195 32.998C65.8821 32.63 65.3455 32.308 64.6095 32.032C63.9041 31.756 63.2908 31.618 62.7695 31.618C63.0148 31.3727 63.3368 31.1427 63.7355 30.928C64.1648 30.7133 64.6095 30.5447 65.0695 30.422C64.5481 30.4527 64.0268 30.422 63.5055 30.33C62.9535 30.2073 62.4935 30.0387 62.1255 29.824C62.7081 30.0387 63.3981 30.1 64.1955 30.008C65.0235 29.916 65.6981 29.7013 66.2195 29.364C65.6675 29.4867 64.9928 29.4253 64.1955 29.18C63.4288 28.9347 62.8155 28.628 62.3555 28.26C62.9075 28.3827 63.5821 28.3213 64.3795 28.076C65.1768 27.8307 65.7901 27.524 66.2195 27.156C65.9435 26.8187 65.5141 26.5427 64.9315 26.328C64.3488 26.1133 63.8428 25.9907 63.4135 25.96C63.6895 25.6533 64.1188 25.3773 64.7015 25.132C65.2841 24.8867 65.7901 24.764 66.2195 24.764C65.8821 24.396 65.3608 24.028 64.6555 23.66C63.9808 23.2613 63.3981 23.0467 62.9075 23.016C63.2448 22.648 63.7508 22.28 64.4255 21.912C65.1001 21.544 65.6521 21.3447 66.0815 21.314C65.5295 21.3753 64.8855 21.3293 64.1495 21.176C63.4135 20.992 62.8308 20.716 62.4015 20.348C62.9841 20.44 63.6435 20.4093 64.3795 20.256C65.1461 20.072 65.7595 19.8113 66.2195 19.474C66.0355 19.1673 65.6981 18.8607 65.2075 18.554C64.7168 18.2473 64.3028 18.094 63.9655 18.094C64.1495 17.818 64.4715 17.5267 64.9315 17.22C65.4221 16.9133 65.7901 16.76 66.0355 16.76C65.3915 16.852 64.6555 16.806 63.8275 16.622C62.9995 16.438 62.3401 16.162 61.8495 15.794C62.4935 15.9167 63.2601 15.9013 64.1495 15.748C65.0388 15.5947 65.7288 15.3033 66.2195 14.874C66.0968 14.5367 65.8361 14.2147 65.4375 13.908C65.0695 13.5707 64.7321 13.3713 64.4255 13.31C64.7321 13.1567 65.1308 13.126 65.6215 13.218C66.1121 13.2793 66.5108 13.3867 66.8175 13.54C67.0015 13.356 67.1855 13.0647 67.3695 12.666C67.5535 12.2673 67.6301 11.9147 67.5995 11.608C67.9675 11.9453 68.2281 12.4207 68.3815 13.034C68.3508 12.2367 68.5655 11.5467 69.0255 10.964C68.9028 11.332 68.9028 11.7767 69.0255 12.298C69.1788 12.8193 69.3628 13.2333 69.5775 13.54C70.0375 13.0493 70.3748 12.344 70.5895 11.424C70.8041 10.4733 70.8655 9.66067 70.7735 8.986C71.2335 9.47666 71.5555 10.1973 71.7395 11.148C71.9235 12.068 71.9848 12.8653 71.9235 13.54C72.2608 13.356 72.6288 12.988 73.0275 12.436C73.4568 11.884 73.7021 11.424 73.7635 11.056C74.1008 11.24 74.4535 11.6233 74.8215 12.206C75.1895 12.7887 75.4041 13.264 75.4655 13.632C75.5881 13.6627 75.7415 13.6933 75.9255 13.724C75.7721 12.896 75.7568 12.2213 75.8795 11.7C76.3701 12.3747 77.0755 12.9573 77.9955 13.448C78.5475 13.2947 78.9768 13.126 79.2835 12.942C79.2221 12.39 79.2375 11.8227 79.3295 11.24C79.4215 10.6267 79.5595 10.1053 79.7435 9.676C79.8661 10.2893 80.1728 10.964 80.6635 11.7C81.1848 12.436 81.7215 12.942 82.2735 13.218C82.0588 12.666 82.0128 11.9913 82.1355 11.194C82.2581 10.366 82.4728 9.70667 82.7795 9.216C82.6875 9.79867 82.7641 10.4733 83.0095 11.24C83.2548 12.0067 83.5615 12.62 83.9295 13.08C83.8375 12.4667 83.8835 11.7613 84.0675 10.964C84.2821 10.1667 84.5735 9.50733 84.9415 8.986C84.7268 9.56867 84.6501 10.2893 84.7115 11.148C84.8035 11.976 85.0181 12.6507 85.3555 13.172C85.7848 12.8347 86.1988 12.3287 86.5975 11.654C86.9961 10.9487 87.2415 10.32 87.3335 9.768C87.5788 10.228 87.7015 10.8107 87.7015 11.516C87.7321 12.1907 87.6555 12.804 87.4715 13.356C87.7168 12.804 88.0695 12.2673 88.5295 11.746C89.0201 11.2247 89.4955 10.8567 89.9555 10.642C89.5568 11.0407 89.2348 11.6387 88.9895 12.436C88.7748 13.2333 88.6981 13.9233 88.7595 14.506C89.1275 14.5367 89.5721 14.46 90.0935 14.276C90.6148 14.0613 90.9981 13.816 91.2435 13.54C91.2741 13.908 91.1975 14.368 91.0135 14.92C90.8295 15.4413 90.6148 15.8247 90.3695 16.07C90.8295 15.794 91.4888 15.6407 92.3475 15.61C93.2061 15.5793 93.8961 15.6713 94.4175 15.886C93.8961 16.1007 93.3748 16.5453 92.8535 17.22C92.3628 17.8947 92.0255 18.4927 91.8415 19.014C92.0868 19.106 92.3935 19.1673 92.7615 19.198C93.1601 19.198 93.4821 19.1367 93.7275 19.014C93.5435 19.2287 93.2828 19.4433 92.9455 19.658C92.6388 19.842 92.3475 19.934 92.0715 19.934C92.4395 20.21 92.9301 20.44 93.5435 20.624C94.1875 20.7773 94.7395 20.8233 95.1995 20.762C94.9235 21.13 94.4941 21.4673 93.9115 21.774C93.3288 22.0807 92.8228 22.2647 92.3935 22.326C92.8535 22.7553 93.4975 23.0467 94.3255 23.2C95.1841 23.3533 95.9201 23.384 96.5335 23.292C96.0428 23.6907 95.3835 24.0127 94.5555 24.258C93.7275 24.4727 93.0068 24.5033 92.3935 24.35C92.7921 24.6873 93.3288 24.9787 94.0035 25.224C94.6781 25.4693 95.2761 25.5767 95.7975 25.546C95.5215 25.822 95.1228 26.0827 94.6015 26.328C94.1108 26.5427 93.6201 26.6807 93.1295 26.742C93.7735 26.8033 94.3255 26.9873 94.7855 27.294C94.4481 27.202 94.0341 27.2173 93.5435 27.34C93.0528 27.432 92.6695 27.6007 92.3935 27.846C93.0375 27.662 93.7888 27.616 94.6475 27.708C95.5368 27.8 96.2575 28.03 96.8095 28.398C96.1961 28.1833 95.4448 28.1373 94.5555 28.26C93.6661 28.352 92.9455 28.582 92.3935 28.95C92.5775 29.1647 92.8535 29.364 93.2215 29.548C93.6201 29.732 93.9575 29.8393 94.2335 29.87C94.1415 30.0233 93.9728 30.1613 93.7275 30.284C93.5128 30.4067 93.2981 30.514 93.0835 30.606C93.6968 30.514 94.3715 30.5293 95.1075 30.652C95.8435 30.7747 96.4415 31.0047 96.9015 31.342C96.2575 31.1887 95.4908 31.158 94.6015 31.25C93.7121 31.342 92.9761 31.5567 92.3935 31.894C92.7001 31.802 93.2675 31.802 94.0955 31.894C94.9541 31.9553 95.8741 32.078 96.8555 32.262C97.8675 32.446 98.7721 32.6453 99.5695 32.86C100.397 33.0747 100.949 33.274 101.225 33.458C100.919 33.366 100.336 33.366 99.4775 33.458C98.6188 33.5193 97.6988 33.642 96.7175 33.826C95.7361 33.9793 94.8315 34.1633 94.0035 34.378C93.2061 34.5927 92.6695 34.8073 92.3935 35.022C92.5468 35.298 92.7921 35.6047 93.1295 35.942C93.4975 36.2487 93.8348 36.4633 94.1415 36.586C93.8655 36.7087 93.4821 36.77 92.9915 36.77C92.5008 36.77 92.1021 36.6933 91.7955 36.54C91.5501 36.908 91.3355 37.3987 91.1515 38.012C90.9981 38.656 90.9521 39.208 91.0135 39.668C90.6148 39.1467 90.3388 38.4873 90.1855 37.69C90.0935 38.3033 89.8941 38.794 89.5875 39.162C89.6795 38.7633 89.6641 38.3033 89.5415 37.782C89.4495 37.2607 89.2808 36.8467 89.0355 36.54C89.0968 37.1227 88.9588 37.8127 88.6215 38.61C88.3148 39.4073 87.9315 39.99 87.4715 40.358C87.5328 39.7753 87.3948 39.0853 87.0575 38.288C86.7201 37.5213 86.3521 36.9387 85.9535 36.54C85.5855 36.8467 85.2635 37.322 84.9875 37.966C84.7115 38.6407 84.5735 39.208 84.5735 39.668C84.2361 39.3307 83.9295 38.84 83.6535 38.196C83.3775 37.552 83.2241 37 83.1935 36.54C83.0095 36.6627 82.7335 36.7547 82.3655 36.816C82.0281 36.8773 81.7521 36.8773 81.5375 36.816C81.6908 36.6627 81.8135 36.4173 81.9055 36.08C81.9975 35.712 82.0435 35.4207 82.0435 35.206C81.8288 35.206 81.5681 35.16 81.2615 35.068C80.9855 34.9453 80.7708 34.8073 80.6175 34.654C80.8321 34.6847 81.0928 34.654 81.3995 34.562C81.7061 34.4393 81.9208 34.286 82.0435 34.102C81.8595 34.01 81.6141 33.7953 81.3075 33.458C81.0008 33.1207 80.8168 32.86 80.7555 32.676C80.9395 32.584 81.1848 32.3693 81.4915 32.032C81.8288 31.664 82.0128 31.388 82.0435 31.204C81.6141 31.1733 81.1081 31.0353 80.5255 30.79C79.9735 30.514 79.5441 30.2227 79.2375 29.916C79.6668 29.9467 80.1728 29.824 80.7555 29.548C81.3381 29.272 81.7675 28.9807 82.0435 28.674C81.6755 28.6433 81.2308 28.5053 80.7095 28.26C80.2188 28.0147 79.8508 27.754 79.6055 27.478C79.9735 27.4473 80.4028 27.3247 80.8935 27.11C81.4148 26.8647 81.7981 26.5887 82.0435 26.282C81.9821 26.098 81.7675 25.822 81.3995 25.454C81.0621 25.0553 80.8015 24.81 80.6175 24.718C80.6788 24.534 80.8781 24.258 81.2155 23.89C81.5835 23.4913 81.8595 23.246 82.0435 23.154C81.8901 23.0313 81.6601 22.924 81.3535 22.832C81.0468 22.74 80.7708 22.694 80.5255 22.694C80.0961 23.5527 79.6361 24.212 79.1455 24.672C79.2375 24.1813 79.2221 23.5987 79.0995 22.924C78.9768 22.2187 78.7775 21.6053 78.5015 21.084C78.7468 21.636 78.8388 22.1113 78.7775 22.51C78.6241 22.2647 78.3635 22.0347 77.9955 21.82C77.6581 21.5747 77.3515 21.4367 77.0755 21.406C77.0755 21.59 77.1981 21.8967 77.4435 22.326C77.7195 22.7247 77.9341 22.9853 78.0875 23.108C78.0261 23.292 77.7961 23.522 77.3975 23.798C76.9988 24.074 76.7075 24.2427 76.5235 24.304C76.6768 24.5187 76.9375 24.7947 77.3055 25.132C77.7041 25.4387 78.0415 25.6073 78.3175 25.638C78.1641 25.8833 77.8881 26.1593 77.4895 26.466C77.0908 26.7727 76.7688 26.9567 76.5235 27.018C76.7688 27.2327 77.1061 27.386 77.5355 27.478C77.9955 27.5393 78.3941 27.5393 78.7315 27.478C78.4248 27.662 78.0568 27.8 77.6275 27.892C77.2288 27.984 76.8608 27.9993 76.5235 27.938C76.7995 27.9993 77.1368 28.168 77.5355 28.444C77.9648 28.72 78.2715 28.9807 78.4555 29.226C78.1795 29.2873 77.8268 29.456 77.3975 29.732C76.9681 29.9773 76.6768 30.2227 76.5235 30.468C76.8608 30.4067 77.2595 30.4527 77.7195 30.606C78.1795 30.7287 78.5321 30.8973 78.7775 31.112C78.4401 31.0507 78.0415 31.0967 77.5815 31.25C77.1215 31.3727 76.7688 31.5413 76.5235 31.756C76.9835 31.6947 77.5355 31.7867 78.1795 32.032C78.8235 32.2773 79.2988 32.584 79.6055 32.952C79.1455 32.9213 78.5935 33.0287 77.9495 33.274C77.3361 33.5193 76.8608 33.7953 76.5235 34.102C76.8915 34.3473 77.2901 34.7153 77.7195 35.206C78.1488 35.6967 78.4248 36.1567 78.5475 36.586C78.1488 36.402 77.6121 36.2947 76.9375 36.264C76.2935 36.2333 75.7721 36.3253 75.3735 36.54C75.0668 37.0307 74.8368 37.6593 74.6835 38.426C74.5301 39.2233 74.5455 39.898 74.7295 40.45C74.4841 40.082 74.2848 39.622 74.1315 39.07C74.0088 38.518 73.9628 37.9967 73.9935 37.506C73.8708 38.0273 73.6868 38.5487 73.4415 39.07C73.2268 39.5913 72.9661 39.99 72.6595 40.266C72.6901 39.714 72.5521 39.0547 72.2455 38.288C71.9388 37.5213 71.5861 36.9387 71.1875 36.54C71.2795 37.092 71.2795 37.736 71.1875 38.472C71.0955 39.2387 70.8808 39.852 70.5435 40.312C70.7275 39.76 70.7581 39.1007 70.6355 38.334C70.5128 37.5673 70.2675 36.9693 69.8995 36.54C69.5008 36.8467 69.1635 37.368 68.8875 38.104C68.6115 38.84 68.4735 39.4687 68.4735 39.99C68.0748 39.6527 67.6915 39.024 67.3235 38.104C66.9555 37.2147 66.5875 35.942 66.2195 34.286ZM79.5595 14C79.4368 13.7547 79.3448 13.4327 79.2835 13.034C79.1915 13.2793 79.0535 13.5553 78.8695 13.862C79.1148 13.954 79.3448 14 79.5595 14ZM103.564 36.77C103.073 37.1073 102.582 37.598 102.092 38.242C101.632 38.9167 101.356 39.5453 101.264 40.128C101.049 39.6987 100.942 39.1313 100.942 38.426C100.942 37.7513 101.034 37.1533 101.218 36.632C100.972 37 100.65 37.3527 100.252 37.69C99.8835 38.0273 99.5309 38.242 99.1935 38.334C99.5002 37.9967 99.7455 37.5213 99.9295 36.908C100.114 36.2947 100.19 35.758 100.16 35.298C100.037 35.574 99.8069 35.8347 99.4695 36.08C99.1322 36.2947 98.8102 36.448 98.5035 36.54C98.7489 36.356 98.9635 36.08 99.1475 35.712C99.3315 35.344 99.4389 35.0067 99.4695 34.7C99.0709 35.0373 98.5035 35.3133 97.7675 35.528C97.0315 35.7427 96.4029 35.804 95.8815 35.712C96.3415 35.436 96.7709 34.976 97.1695 34.332C97.5989 33.688 97.8595 33.1053 97.9515 32.584C97.5222 32.9213 96.9395 33.1667 96.2035 33.32C95.4982 33.4733 94.8849 33.5193 94.3635 33.458C94.8849 33.3353 95.4675 33.09 96.1115 32.722C96.7555 32.3233 97.2002 31.8787 97.4455 31.388C96.8935 31.572 96.1882 31.6027 95.3295 31.48C94.5015 31.3573 93.8575 31.1427 93.3975 30.836C93.9495 30.7133 94.5782 30.422 95.2835 29.962C95.9889 29.502 96.4795 29.0113 96.7555 28.49C96.4795 28.582 96.1422 28.5973 95.7435 28.536C95.3755 28.444 95.0842 28.306 94.8695 28.122C95.1455 28.122 95.4675 28.0607 95.8355 27.938C96.2035 27.7847 96.4795 27.6007 96.6635 27.386C96.1422 26.9567 95.4215 26.6193 94.5015 26.374C93.5815 26.098 92.7842 25.9907 92.1095 26.052C92.5695 25.684 93.1829 25.3467 93.9495 25.04C94.7162 24.7333 95.4369 24.5647 96.1115 24.534C95.6822 24.4727 95.2375 24.3653 94.7775 24.212C94.3175 24.0587 93.9649 23.8593 93.7195 23.614C94.1489 23.706 94.6549 23.6753 95.2375 23.522C95.8509 23.3687 96.3109 23.154 96.6175 22.878C96.1882 22.4793 95.5902 22.188 94.8235 22.004C94.0875 21.7893 93.4282 21.7127 92.8455 21.774C93.3669 21.498 94.0109 21.3293 94.7775 21.268C95.5442 21.176 96.2035 21.222 96.7555 21.406C96.4795 21.038 96.0655 20.6853 95.5135 20.348C94.9922 19.98 94.5015 19.75 94.0415 19.658C94.4402 19.4127 94.9615 19.2593 95.6055 19.198C96.2802 19.106 96.8322 19.1213 97.2615 19.244C96.9855 18.7533 96.5255 18.3087 95.8815 17.91C95.2375 17.4807 94.6395 17.2353 94.0875 17.174C94.6089 17.0207 95.2375 17.0207 95.9735 17.174C96.7402 17.2967 97.3535 17.5267 97.8135 17.864C97.4149 17.588 97.0009 17.1587 96.5715 16.576C96.1422 15.9933 95.8969 15.4567 95.8355 14.966C96.2342 15.242 96.7862 15.472 97.4915 15.656C98.1969 15.8093 98.7795 15.84 99.2395 15.748C99.0555 15.4413 98.9022 15.012 98.7795 14.46C98.6875 13.8773 98.6875 13.4173 98.7795 13.08C99.0249 13.356 99.4082 13.6013 99.9295 13.816C100.482 14.0307 100.926 14.138 101.264 14.138C101.478 13.678 101.616 13.08 101.678 12.344C101.77 11.5773 101.708 10.964 101.494 10.504C101.954 10.688 102.429 11.0713 102.92 11.654C103.441 12.2367 103.763 12.7733 103.886 13.264C104.192 13.08 104.53 12.7273 104.898 12.206C105.296 11.6847 105.542 11.2553 105.634 10.918C105.94 11.0713 106.293 11.4087 106.692 11.93C107.121 12.4513 107.382 12.8653 107.474 13.172C107.75 13.1107 108.072 12.9113 108.44 12.574C108.838 12.206 109.099 11.884 109.222 11.608C109.406 11.8533 109.559 12.2213 109.682 12.712C109.835 13.2027 109.881 13.586 109.82 13.862C109.973 13.7087 110.234 13.5553 110.602 13.402L110.556 13.31C110.832 13.2487 111.184 13.034 111.614 12.666C112.043 12.298 112.334 11.9913 112.488 11.746C112.273 11.5007 111.936 11.3013 111.476 11.148C111.046 10.964 110.678 10.8873 110.372 10.918C110.617 10.7033 110.954 10.504 111.384 10.32C111.813 10.136 112.181 10.0747 112.488 10.136C112.181 10.0747 111.782 9.89067 111.292 9.584C110.832 9.27733 110.51 9.00133 110.326 8.756C110.663 8.72533 111.062 8.55667 111.522 8.25C111.982 7.94333 112.304 7.652 112.488 7.376C111.844 7.468 111.092 7.43733 110.234 7.284C109.406 7.1 108.716 6.83933 108.164 6.502C108.808 6.594 109.544 6.56333 110.372 6.41C111.23 6.226 111.936 5.95 112.488 5.582C112.304 5.09133 112.212 4.478 112.212 3.742C112.242 3.006 112.38 2.408 112.626 1.948C112.81 2.43866 113.116 2.97533 113.546 3.558C114.006 4.14067 114.45 4.55467 114.88 4.8C115.217 4.46267 115.508 3.98733 115.754 3.374C115.999 2.76067 116.137 2.224 116.168 1.764C116.474 2.10133 116.75 2.57666 116.996 3.19C117.272 3.80333 117.425 4.34 117.456 4.8C117.762 4.58533 118.084 4.202 118.422 3.65C118.79 3.098 119.004 2.638 119.066 2.27C119.372 2.48467 119.694 2.868 120.032 3.42C120.4 3.972 120.614 4.432 120.676 4.8C120.952 4.76933 121.274 4.64667 121.642 4.432C122.01 4.18667 122.27 3.95667 122.424 3.742C122.577 3.95667 122.654 4.294 122.654 4.754C122.684 5.18333 122.654 5.52067 122.562 5.766C123.144 5.79667 123.834 5.95 124.632 6.226C125.429 6.502 126.012 6.87 126.38 7.33C125.797 7.29933 125.107 7.45267 124.31 7.79C123.543 8.09667 122.96 8.46467 122.562 8.894C122.746 8.86333 123.129 8.894 123.712 8.986C124.325 9.078 124.923 9.20067 125.506 9.354C126.088 9.47667 126.456 9.59933 126.61 9.722C126.426 9.66066 126.027 9.676 125.414 9.768C124.831 9.86 124.248 9.98266 123.666 10.136C123.083 10.2893 122.715 10.4273 122.562 10.55C122.991 10.8567 123.558 11.0867 124.264 11.24C124.969 11.3627 125.582 11.378 126.104 11.286C125.889 11.47 125.613 11.6233 125.276 11.746C124.969 11.838 124.647 11.9147 124.31 11.976C124.862 12.0987 125.337 12.2673 125.736 12.482C125.276 12.3593 124.724 12.344 124.08 12.436C123.466 12.528 122.96 12.6967 122.562 12.942C122.838 13.0033 123.19 13.218 123.62 13.586C124.049 13.954 124.325 14.2607 124.448 14.506C124.172 14.598 123.819 14.828 123.39 15.196C122.96 15.5333 122.684 15.8247 122.562 16.07C122.899 16.07 123.313 16.162 123.804 16.346C124.294 16.4993 124.647 16.714 124.862 16.99C124.524 16.9593 124.11 17.0513 123.62 17.266C123.129 17.45 122.776 17.6647 122.562 17.91C122.991 18.3087 123.604 18.6153 124.402 18.83C125.199 19.014 125.889 19.0753 126.472 19.014C126.134 19.3207 125.674 19.5813 125.092 19.796C124.54 19.98 124.003 20.0873 123.482 20.118C124.003 20.21 124.417 20.3633 124.724 20.578C124.417 20.486 124.034 20.486 123.574 20.578C123.144 20.67 122.807 20.8233 122.562 21.038C122.746 21.2833 123.052 21.5593 123.482 21.866C123.942 22.142 124.325 22.2953 124.632 22.326C124.448 22.5713 124.126 22.8473 123.666 23.154C123.236 23.43 122.868 23.5833 122.562 23.614C122.899 23.9513 123.39 24.258 124.034 24.534C124.708 24.7793 125.291 24.8713 125.782 24.81C125.444 25.1473 124.938 25.454 124.264 25.73C123.62 25.9753 123.052 26.0673 122.562 26.006C122.807 26.3127 123.19 26.6193 123.712 26.926C124.264 27.202 124.724 27.3553 125.092 27.386C124.846 27.6927 124.448 27.984 123.896 28.26C123.374 28.536 122.93 28.7047 122.562 28.766C122.838 28.8273 123.19 29.0113 123.62 29.318C124.049 29.6247 124.34 29.9007 124.494 30.146C124.218 30.1767 123.85 30.3607 123.39 30.698C122.96 31.0047 122.684 31.2807 122.562 31.526C123.052 31.434 123.62 31.48 124.264 31.664C124.938 31.8173 125.46 32.0473 125.828 32.354C125.337 32.2927 124.77 32.3387 124.126 32.492C123.482 32.6453 122.96 32.8753 122.562 33.182C122.746 33.3353 123.175 33.5193 123.85 33.734C124.524 33.9487 125.199 34.1327 125.874 34.286C126.548 34.4393 127.008 34.5007 127.254 34.47C127.131 34.5927 126.855 34.746 126.426 34.93C125.996 35.0833 125.506 35.2367 124.954 35.39C124.432 35.5127 123.942 35.62 123.482 35.712C123.052 35.7733 122.746 35.7887 122.562 35.758C122.807 36.126 122.96 36.6167 123.022 37.23C123.114 37.874 123.098 38.4107 122.976 38.84C122.792 38.4413 122.485 38.012 122.056 37.552C121.657 37.092 121.258 36.7547 120.86 36.54C120.645 36.724 120.476 37.0153 120.354 37.414C120.262 37.8433 120.216 38.196 120.216 38.472C120.032 38.2573 119.863 37.9507 119.71 37.552C119.587 37.1533 119.556 36.816 119.618 36.54C119.372 36.8773 119.188 37.3067 119.066 37.828C118.974 38.38 118.974 38.8553 119.066 39.254C118.882 39.0087 118.728 38.702 118.606 38.334C118.483 39.1927 118.238 39.9747 117.87 40.68C118.054 40.0973 118.084 39.392 117.962 38.564C117.839 37.736 117.594 37.0613 117.226 36.54C116.919 36.9387 116.658 37.4753 116.444 38.15C116.229 38.8247 116.152 39.4073 116.214 39.898C115.907 39.4993 115.646 38.9627 115.432 38.288C115.248 37.6133 115.186 37.0307 115.248 36.54C115.033 36.7547 114.864 37.0613 114.742 37.46C114.65 37.8893 114.634 38.242 114.696 38.518C114.481 38.3033 114.328 37.9967 114.236 37.598C114.144 37.1993 114.113 36.8467 114.144 36.54C113.868 36.7547 113.515 36.9233 113.086 37.046C113.27 37.9047 113.546 38.6407 113.914 39.254C113.116 38.8553 112.35 38.196 111.614 37.276H111.568C111.752 37.7667 111.874 38.2573 111.936 38.748C112.028 39.2693 112.028 39.7293 111.936 40.128C111.813 39.484 111.476 38.794 110.924 38.058C110.372 37.3527 109.82 36.8313 109.268 36.494C109.298 36.9233 109.176 37.4907 108.9 38.196C108.654 38.9013 108.363 39.4227 108.026 39.76C107.964 39.3 107.596 38.7633 106.922 38.15C106.278 37.5367 105.158 37.0767 103.564 36.77ZM112.166 14.736L112.074 14.69L112.166 14.736ZM110.694 29.548C110.816 29.1187 110.77 28.7047 110.556 28.306C110.74 28.3367 110.924 28.444 111.108 28.628C111.322 28.812 111.46 28.9807 111.522 29.134C111.46 28.8887 111.322 28.6127 111.108 28.306C110.893 27.9993 110.663 27.7847 110.418 27.662C110.694 27.6313 111.016 27.6467 111.384 27.708C111.752 27.7693 112.028 27.892 112.212 28.076C112.15 27.984 111.966 27.8613 111.66 27.708C111.384 27.5547 111.092 27.4167 110.786 27.294C110.479 27.1713 110.28 27.11 110.188 27.11C110.31 27.0487 110.602 27.018 111.062 27.018C111.552 27.018 111.936 27.0487 112.212 27.11C111.997 27.018 111.767 26.88 111.522 26.696C111.307 26.512 111.154 26.3433 111.062 26.19C111.276 26.19 111.537 26.1133 111.844 25.96C112.181 25.776 112.411 25.592 112.534 25.408C112.319 25.1933 111.997 25.04 111.568 24.948C111.169 24.856 110.832 24.8253 110.556 24.856C110.77 24.672 111.077 24.5187 111.476 24.396C111.874 24.2427 112.212 24.1967 112.488 24.258C112.304 24.2273 112.074 24.1507 111.798 24.028C111.552 23.8747 111.368 23.7213 111.246 23.568C111.43 23.5067 111.644 23.384 111.89 23.2C112.166 23.016 112.35 22.8473 112.442 22.694C112.288 22.602 112.074 22.5407 111.798 22.51C111.522 22.4487 111.292 22.4333 111.108 22.464C111.169 22.28 111.292 22.0807 111.476 21.866C111.66 21.6513 111.844 21.5133 112.028 21.452C111.782 21.452 111.491 21.544 111.154 21.728C110.847 21.8813 110.617 22.05 110.464 22.234C110.402 21.958 110.402 21.6207 110.464 21.222C110.341 21.4367 110.203 21.6207 110.05 21.774C110.08 21.5593 110.065 21.314 110.004 21.038C109.942 20.762 109.85 20.5473 109.728 20.394C109.544 20.8233 109.436 21.3447 109.406 21.958C109.406 22.5713 109.482 23.0927 109.636 23.522C109.36 23.1847 109.145 22.7707 108.992 22.28C108.624 22.2187 108.225 22.05 107.796 21.774C108.133 22.0807 108.317 22.3413 108.348 22.556C108.164 22.5253 107.934 22.556 107.658 22.648C107.382 22.74 107.182 22.832 107.06 22.924C107.152 23.108 107.32 23.3073 107.566 23.522C107.842 23.706 108.072 23.8287 108.256 23.89C108.164 24.0433 107.964 24.212 107.658 24.396C107.351 24.5493 107.106 24.6413 106.922 24.672C107.167 24.856 107.504 25.0093 107.934 25.132C108.363 25.224 108.731 25.224 109.038 25.132C108.792 25.3467 108.455 25.5 108.026 25.592C107.596 25.684 107.228 25.6993 106.922 25.638C107.136 25.822 107.428 25.9753 107.796 26.098C108.194 26.2207 108.532 26.2667 108.808 26.236C108.624 26.4507 108.348 26.6653 107.98 26.88C107.642 27.0947 107.336 27.202 107.06 27.202C107.244 27.3247 107.504 27.4167 107.842 27.478C108.179 27.5087 108.455 27.4933 108.67 27.432C108.608 27.6467 108.455 27.8767 108.21 28.122C107.964 28.3673 107.734 28.536 107.52 28.628C107.734 28.5973 108.01 28.5207 108.348 28.398C108.685 28.2447 108.915 28.0913 109.038 27.938C109.068 27.9993 109.084 28.1067 109.084 28.26C109.206 27.984 109.344 27.7847 109.498 27.662C109.436 27.938 109.467 28.2753 109.59 28.674C109.712 29.0727 110.08 29.364 110.694 29.548ZM108.762 20.486C108.762 20.486 108.746 20.5627 108.716 20.716L108.762 20.486ZM136.23 36.77C136.046 37.046 135.693 37.3527 135.172 37.69C134.681 38.058 134.282 38.2727 133.976 38.334C133.945 38.0273 133.807 37.5827 133.562 37C133.347 36.4173 133.117 36.0187 132.872 35.804C132.596 36.2333 132.12 36.6473 131.446 37.046C130.802 37.4753 130.234 37.7207 129.744 37.782C129.989 37.3527 130.173 36.7547 130.296 35.988C130.418 35.2213 130.403 34.5927 130.25 34.102C130.004 34.3473 129.667 34.562 129.238 34.746C128.808 34.8993 128.425 34.976 128.088 34.976C128.333 34.792 128.563 34.4853 128.778 34.056C128.992 33.6267 129.1 33.2433 129.1 32.906C128.64 33.3047 127.98 33.6113 127.122 33.826C126.263 34.01 125.527 34.056 124.914 33.964C125.466 33.688 126.048 33.2587 126.662 32.676C127.306 32.0627 127.72 31.4493 127.904 30.836C127.628 30.652 127.229 30.5293 126.708 30.468C126.186 30.4067 125.772 30.4067 125.466 30.468C125.588 30.1613 125.834 29.8393 126.202 29.502C126.57 29.134 126.907 28.8887 127.214 28.766C126.723 28.4287 126.064 28.2447 125.236 28.214C124.408 28.1527 123.718 28.2293 123.166 28.444C123.534 27.984 124.116 27.6313 124.914 27.386C125.68 27.11 126.355 26.9567 126.938 26.926C126.662 26.5887 126.217 26.2207 125.604 25.822C125.021 25.4233 124.515 25.1933 124.086 25.132C124.331 24.764 124.76 24.396 125.374 24.028C125.987 23.6293 126.508 23.384 126.938 23.292C126.263 23.2613 125.527 23.0773 124.73 22.74C123.902 22.372 123.242 21.958 122.752 21.498C123.365 21.8047 124.132 21.9273 125.052 21.866C125.972 21.8047 126.723 21.6053 127.306 21.268C127.306 20.992 127.168 20.578 126.892 20.026C126.646 19.474 126.401 19.0907 126.156 18.876C126.37 18.692 126.769 18.4927 127.352 18.278C127.934 18.0633 128.379 17.9867 128.686 18.048C128.471 17.8027 128.272 17.404 128.088 16.852C127.904 16.3 127.827 15.8553 127.858 15.518C128.134 15.7327 128.548 15.8707 129.1 15.932C129.682 15.9933 130.142 15.9933 130.48 15.932C130.633 15.5947 130.694 15.1193 130.664 14.506C130.633 13.8927 130.51 13.4327 130.296 13.126C130.664 13.126 131.124 13.264 131.676 13.54C132.228 13.816 132.611 14.1073 132.826 14.414C132.672 14.1687 132.565 13.8313 132.504 13.402C132.442 12.9727 132.442 12.6047 132.504 12.298C132.596 12.6047 132.764 12.942 133.01 13.31C133.286 13.6473 133.562 13.8773 133.838 14C133.715 13.6627 133.7 13.2333 133.792 12.712C133.884 12.1907 134.022 11.792 134.206 11.516C134.267 11.8533 134.466 12.2213 134.804 12.62C135.141 13.0187 135.478 13.2947 135.816 13.448C136.153 12.988 136.383 12.344 136.506 11.516C136.628 10.688 136.582 9.998 136.368 9.446C136.766 9.78333 137.119 10.274 137.426 10.918C137.732 11.562 137.916 12.16 137.978 12.712C137.978 12.1907 138.085 11.5773 138.3 10.872C138.545 10.136 138.867 9.584 139.266 9.216C139.235 9.79867 139.358 10.4887 139.634 11.286C139.91 12.0527 140.232 12.666 140.6 13.126C140.937 12.8807 141.29 12.4973 141.658 11.976C142.056 11.424 142.286 10.9333 142.348 10.504C142.654 10.8107 142.915 11.286 143.13 11.93C143.344 12.574 143.421 13.0953 143.36 13.494C143.544 13.218 143.866 12.9113 144.326 12.574C144.816 12.2367 145.23 12.0373 145.568 11.976C145.506 12.3133 145.552 12.7733 145.706 13.356C145.89 13.908 146.089 14.3067 146.304 14.552C146.549 14.644 146.963 14.644 147.546 14.552C148.159 14.4293 148.573 14.2913 148.788 14.138C148.91 14.3833 149.018 14.7973 149.11 15.38C149.202 15.9627 149.202 16.3767 149.11 16.622C149.324 16.7753 149.723 16.9133 150.306 17.036C150.919 17.1587 151.348 17.174 151.594 17.082C151.686 17.3273 151.655 17.7567 151.502 18.37C151.379 18.9527 151.226 19.3513 151.042 19.566C151.379 19.5047 151.854 19.612 152.468 19.888C153.081 20.1333 153.51 20.3633 153.756 20.578C153.449 20.7313 153.096 21.084 152.698 21.636C152.33 22.1573 152.1 22.5867 152.008 22.924C152.468 23.3227 153.127 23.6753 153.986 23.982C154.844 24.258 155.58 24.35 156.194 24.258C155.764 24.718 155.136 25.132 154.308 25.5C153.48 25.868 152.759 26.0367 152.146 26.006C152.36 26.374 152.698 26.7573 153.158 27.156C153.618 27.524 154.062 27.754 154.492 27.846C154.062 27.938 153.556 27.938 152.974 27.846C152.391 27.7233 151.916 27.5393 151.548 27.294C151.548 27.6927 151.41 28.1833 151.134 28.766C151.318 29.226 151.41 29.6093 151.41 29.916C151.962 29.9467 152.575 30.146 153.25 30.514C153.924 30.8513 154.446 31.2193 154.814 31.618C154.323 31.3727 153.679 31.296 152.882 31.388C152.115 31.4493 151.486 31.618 150.996 31.894C151.026 32.262 151.195 32.676 151.502 33.136C151.808 33.5653 152.1 33.8873 152.376 34.102C152.038 34.1633 151.594 34.1173 151.042 33.964C150.52 33.8107 150.137 33.6113 149.892 33.366C150.382 33.826 150.827 34.4853 151.226 35.344C151.655 36.2027 151.854 36.9693 151.824 37.644C151.486 37.0613 150.934 36.4787 150.168 35.896C149.401 35.3133 148.68 34.9607 148.006 34.838C147.791 35.3287 147.668 36.0033 147.638 36.862C147.638 37.69 147.714 38.3493 147.868 38.84C147.346 38.7173 146.764 38.38 146.12 37.828C145.476 37.276 145.046 36.7547 144.832 36.264C144.617 36.8773 144.571 37.6133 144.694 38.472C144.847 39.3613 145.108 40.0667 145.476 40.588C145.108 40.2507 144.786 39.7907 144.51 39.208C144.264 38.6253 144.096 38.0427 144.004 37.46C143.912 38.104 143.728 38.6407 143.452 39.07C143.39 38.702 143.222 38.288 142.946 37.828C142.7 37.368 142.424 37.046 142.118 36.862C142.118 37.2607 141.995 37.7513 141.75 38.334C141.535 38.9473 141.29 39.4073 141.014 39.714C140.983 39.438 140.845 39.116 140.6 38.748C140.354 38.38 139.894 38.012 139.22 37.644C138.545 37.3067 137.548 37.0153 136.23 36.77ZM139.312 20.992C139.312 21.2067 139.404 21.4827 139.588 21.82C139.772 22.1267 139.956 22.3413 140.14 22.464C140.354 22.3107 140.523 22.0347 140.646 21.636C140.554 21.6053 140.477 21.5747 140.416 21.544C140.446 21.5133 140.554 21.4827 140.738 21.452C140.738 21.36 140.753 21.2833 140.784 21.222C140.293 21.13 139.879 21.1147 139.542 21.176C139.726 20.9 140.017 20.6547 140.416 20.44C140.814 20.1947 141.182 20.0567 141.52 20.026C141.274 19.9953 140.968 20.026 140.6 20.118C140.262 20.21 139.986 20.3327 139.772 20.486C139.864 20.2407 140.032 19.9953 140.278 19.75C140.554 19.5047 140.799 19.336 141.014 19.244C140.86 19.244 140.661 19.3207 140.416 19.474C140.17 19.6273 140.002 19.7807 139.91 19.934C139.91 19.934 139.879 19.842 139.818 19.658C139.756 20.0567 139.649 20.3787 139.496 20.624C139.526 20.348 139.48 20.0107 139.358 19.612C139.235 19.2133 139.082 18.9067 138.898 18.692C138.836 18.876 138.836 19.1367 138.898 19.474C138.959 19.8113 139.051 20.072 139.174 20.256C138.898 20.2253 138.591 20.1333 138.254 19.98C138.56 20.256 138.775 20.532 138.898 20.808C138.652 20.7773 138.346 20.808 137.978 20.9C137.64 20.9613 137.395 21.0533 137.242 21.176C137.395 21.2067 137.61 21.314 137.886 21.498C137.886 21.498 137.932 21.4367 138.024 21.314C138.024 21.406 138.039 21.5133 138.07 21.636C138.131 21.728 138.192 21.8047 138.254 21.866C138.254 21.866 138.208 21.866 138.116 21.866C138.238 22.1113 138.361 22.3107 138.484 22.464C138.484 22.2493 138.576 21.9887 138.76 21.682C138.974 21.3447 139.158 21.1147 139.312 20.992ZM141.796 21.544C141.581 21.4213 141.336 21.3293 141.06 21.268C141.09 21.2987 141.121 21.3447 141.152 21.406C141.397 21.406 141.612 21.452 141.796 21.544ZM137.564 22.464C137.564 22.4333 137.564 22.3567 137.564 22.234C137.564 22.234 137.564 22.3107 137.564 22.464ZM148.788 27.294C148.818 27.57 148.757 27.9073 148.604 28.306C148.481 28.7047 148.328 29.042 148.144 29.318C148.205 29.502 148.251 29.6553 148.282 29.778C148.68 29.4407 149.079 28.904 149.478 28.168C149.263 27.8 149.033 27.5087 148.788 27.294ZM144.372 27.846C144.617 27.9993 144.832 28.2907 145.016 28.72C145.23 29.1493 145.353 29.502 145.384 29.778C145.66 29.594 145.966 29.272 146.304 28.812C146.641 28.3213 146.81 27.9073 146.81 27.57C146.963 27.662 147.132 27.8 147.316 27.984C147.162 27.6773 146.994 27.4473 146.81 27.294C146.779 27.6007 146.61 27.984 146.304 28.444C145.997 28.904 145.706 29.1953 145.43 29.318C145.368 29.0113 145.184 28.6433 144.878 28.214C144.571 27.754 144.295 27.4473 144.05 27.294C143.804 27.57 143.62 27.9533 143.498 28.444C143.375 28.9347 143.344 29.3487 143.406 29.686C143.007 29.2567 142.777 28.628 142.716 27.8C142.624 28.3213 142.44 28.7353 142.164 29.042C142.624 29.4407 143.038 29.686 143.406 29.778C143.62 29.6247 143.82 29.3333 144.004 28.904C144.218 28.4747 144.341 28.122 144.372 27.846ZM139.68 27.294C139.741 27.57 139.756 27.9227 139.726 28.352C139.726 28.7813 139.664 29.18 139.542 29.548C139.695 29.7933 139.879 30.0387 140.094 30.284C140.339 30.4987 140.538 30.6367 140.692 30.698C140.6 30.3607 140.615 29.9007 140.738 29.318C140.891 28.7353 141.075 28.306 141.29 28.03C141.412 28.3367 141.688 28.674 142.118 29.042C142.179 28.7967 142.133 28.5053 141.98 28.168C141.826 27.8 141.658 27.5087 141.474 27.294C141.32 27.386 141.136 27.5853 140.922 27.892C140.707 28.168 140.6 28.398 140.6 28.582C140.416 28.49 140.216 28.306 140.002 28.03C139.787 27.7233 139.68 27.478 139.68 27.294ZM137.932 30.698C137.962 30.5447 138.054 30.3607 138.208 30.146C138.392 29.9313 138.576 29.732 138.76 29.548L138.714 29.456C138.284 29.916 138.024 30.33 137.932 30.698ZM165.442 36.816C165.135 37.2147 164.859 37.736 164.614 38.38C164.399 39.024 164.338 39.5913 164.43 40.082C164.215 39.622 164.108 39.0393 164.108 38.334C164.138 37.6593 164.292 37.1073 164.568 36.678C164.138 37.1687 163.786 37.8127 163.51 38.61C163.234 39.438 163.096 40.1893 163.096 40.864C162.881 40.22 162.835 39.4687 162.958 38.61C163.111 37.7513 163.341 37.0307 163.648 36.448C163.188 36.6933 162.697 37.092 162.176 37.644C161.654 38.196 161.302 38.7327 161.118 39.254C160.872 38.7633 160.75 38.1347 160.75 37.368C160.78 36.6013 160.888 35.9727 161.072 35.482C160.428 35.6047 159.707 35.9267 158.91 36.448C158.143 36.9693 157.56 37.4907 157.162 38.012C157.07 37.368 157.146 36.586 157.392 35.666C157.637 34.746 157.974 34.0253 158.404 33.504C157.882 33.5347 157.284 33.7187 156.61 34.056C155.966 34.3627 155.475 34.7307 155.138 35.16C155.291 34.6387 155.582 34.0867 156.012 33.504C156.441 32.9213 156.886 32.5073 157.346 32.262C157.008 32.1393 156.579 32.1087 156.058 32.17C155.536 32.2313 155.138 32.3693 154.862 32.584C154.923 32.308 155.061 32.0167 155.276 31.71C155.521 31.4033 155.766 31.1427 156.012 30.928C155.613 31.1427 155.138 31.296 154.586 31.388C154.034 31.48 153.543 31.4953 153.114 31.434C153.635 31.4033 154.187 31.2193 154.77 30.882C155.352 30.5447 155.797 30.1767 156.104 29.778C155.613 29.594 155.015 29.5633 154.31 29.686C153.604 29.778 153.037 29.9773 152.608 30.284C152.884 29.9467 153.282 29.6553 153.804 29.41C154.325 29.134 154.831 28.9653 155.322 28.904C154.862 28.8733 154.371 28.7507 153.85 28.536C153.328 28.3213 152.914 28.0913 152.608 27.846C153.068 27.8153 153.62 27.616 154.264 27.248C154.908 26.88 155.337 26.4967 155.552 26.098C155.245 26.0673 154.846 25.9447 154.356 25.73C153.896 25.5153 153.558 25.2853 153.344 25.04C153.681 25.0093 154.08 24.8867 154.54 24.672C155.03 24.4573 155.368 24.2273 155.552 23.982C155.061 23.522 154.371 23.2153 153.482 23.062C152.592 22.878 151.81 22.8167 151.136 22.878C151.688 22.51 152.424 22.28 153.344 22.188C154.233 22.0653 155.015 22.1113 155.69 22.326C155.291 22.0193 154.785 21.7587 154.172 21.544C153.589 21.3293 153.052 21.268 152.562 21.36C153.022 21.176 153.574 21.084 154.218 21.084C154.862 21.0533 155.398 21.1607 155.828 21.406C155.613 20.946 155.23 20.44 154.678 19.888C154.126 19.336 153.604 18.9987 153.114 18.876C153.543 18.6 154.156 18.4467 154.954 18.416C155.751 18.3547 156.38 18.4313 156.84 18.646C156.717 18.186 156.441 17.7107 156.012 17.22C155.613 16.7293 155.214 16.3613 154.816 16.116C155.276 16.0547 155.812 16.1313 156.426 16.346C157.07 16.53 157.545 16.7907 157.852 17.128C157.453 16.6987 157.07 16.116 156.702 15.38C156.334 14.644 156.119 13.9847 156.058 13.402C156.364 13.8927 156.886 14.3527 157.622 14.782C158.358 15.1807 159.032 15.4107 159.646 15.472C159.247 14.9813 158.986 14.276 158.864 13.356C158.741 12.436 158.756 11.6693 158.91 11.056C159.155 11.6387 159.615 12.2367 160.29 12.85C160.995 13.4327 161.639 13.8467 162.222 14.092C162.068 13.5707 162.084 12.896 162.268 12.068C162.452 11.24 162.712 10.6267 163.05 10.228C163.234 10.7187 163.586 11.3013 164.108 11.976C164.629 12.62 165.135 13.034 165.626 13.218C165.626 12.942 165.718 12.6047 165.902 12.206C166.086 11.7767 166.285 11.47 166.5 11.286C166.53 11.562 166.668 11.8993 166.914 12.298C167.159 12.666 167.404 12.9267 167.65 13.08C167.68 12.436 167.864 11.6847 168.202 10.826C168.57 9.96733 168.999 9.32333 169.49 8.894C169.398 9.538 169.49 10.3047 169.766 11.194C170.042 12.0833 170.394 12.7733 170.824 13.264C171.376 12.896 171.882 12.3133 172.342 11.516C172.832 10.7187 173.108 9.998 173.17 9.354C173.415 9.906 173.584 10.596 173.676 11.424C173.798 12.252 173.783 12.9727 173.63 13.586C173.814 13.034 174.166 12.4973 174.688 11.976C175.209 11.424 175.7 11.0253 176.16 10.78C175.853 11.2707 175.654 11.93 175.562 12.758C175.5 13.586 175.562 14.2913 175.746 14.874C176.206 14.7513 176.681 14.4447 177.172 13.954C177.693 13.4633 178.03 12.988 178.184 12.528C178.245 13.356 178.046 14.1993 177.586 15.058C178.015 14.598 178.475 14.2913 178.966 14.138C178.69 14.3527 178.429 14.69 178.184 15.15C177.969 15.5793 177.862 15.9627 177.862 16.3C178.23 16.3307 178.674 16.2387 179.196 16.024C179.748 15.8093 180.146 15.5487 180.392 15.242C180.422 15.6407 180.315 16.1007 180.07 16.622C179.824 17.1127 179.564 17.496 179.288 17.772C179.717 17.5267 180.33 17.4193 181.128 17.45C181.925 17.45 182.538 17.5573 182.968 17.772C182.569 18.0787 182.14 18.554 181.68 19.198C181.25 19.8113 180.99 20.3633 180.898 20.854C181.143 21.2527 181.542 21.6207 182.094 21.958C182.676 22.2953 183.198 22.4947 183.658 22.556C183.228 22.74 182.692 22.8013 182.048 22.74C181.404 22.648 180.867 22.4947 180.438 22.28C180.56 22.74 180.56 23.2613 180.438 23.844C180.346 24.4267 180.192 24.9173 179.978 25.316C180.07 24.8867 180.054 24.3807 179.932 23.798C179.809 23.1847 179.61 22.694 179.334 22.326C179.119 22.6633 178.935 23.0927 178.782 23.614C178.659 24.1353 178.628 24.5953 178.69 24.994C178.444 24.6873 178.26 24.2733 178.138 23.752C178.015 23.2 177.984 22.7247 178.046 22.326C177.77 22.6327 177.509 23.062 177.264 23.614C177.018 24.166 176.911 24.6413 176.942 25.04C176.666 24.764 176.405 24.35 176.16 23.798C175.914 23.2153 175.807 22.7247 175.838 22.326C175.623 22.7247 175.47 23.2307 175.378 23.844C175.286 24.4573 175.301 24.994 175.424 25.454C175.178 25.0553 174.994 24.5493 174.872 23.936C174.749 23.3227 174.764 22.832 174.918 22.464C174.734 22.9547 174.442 23.338 174.044 23.614C174.013 23.43 173.89 23.2 173.676 22.924C173.461 22.6173 173.277 22.418 173.124 22.326C172.97 22.4793 172.817 22.694 172.664 22.97C172.541 23.246 172.48 23.4913 172.48 23.706C172.326 23.5833 172.173 23.384 172.02 23.108C171.897 22.8013 171.836 22.5407 171.836 22.326C171.682 22.5407 171.437 22.7707 171.1 23.016C170.793 23.2613 170.486 23.4453 170.18 23.568V23.614L170.134 23.568C169.95 23.66 169.781 23.7213 169.628 23.752C169.658 23.6907 169.689 23.6293 169.72 23.568C169.106 23.5987 168.416 23.7213 167.65 23.936C166.914 24.1507 166.331 24.442 165.902 24.81C166.3 24.81 166.776 24.9327 167.328 25.178C167.88 25.4233 168.278 25.684 168.524 25.96C168.125 25.9907 167.65 26.144 167.098 26.42C166.576 26.696 166.208 26.9873 165.994 27.294C166.484 27.018 167.144 26.8493 167.972 26.788C168.8 26.696 169.49 26.7113 170.042 26.834C169.551 27.0793 169.045 27.478 168.524 28.03C168.922 28.6433 169.352 29.1033 169.812 29.41C169.934 29.226 170.026 28.904 170.088 28.444C170.149 27.984 170.149 27.662 170.088 27.478C170.272 27.4167 170.594 27.4167 171.054 27.478C171.514 27.5393 171.836 27.6313 172.02 27.754C172.326 27.57 172.679 27.2173 173.078 26.696C173.476 26.144 173.706 25.684 173.768 25.316C174.074 25.5 174.427 25.8527 174.826 26.374C175.224 26.8953 175.439 27.3093 175.47 27.616C175.408 27.3093 175.424 26.9567 175.516 26.558C175.638 26.1593 175.776 25.8373 175.93 25.592C175.868 25.8987 175.884 26.2667 175.976 26.696C176.068 27.1253 176.206 27.478 176.39 27.754C176.451 27.478 176.635 27.1407 176.942 26.742C177.248 26.3127 177.524 26.052 177.77 25.96C177.831 26.236 178.015 26.5733 178.322 26.972C178.659 27.34 178.935 27.6007 179.15 27.754C179.364 27.5393 179.533 27.2327 179.656 26.834C179.809 26.4353 179.87 26.098 179.84 25.822C180.054 26.0367 180.223 26.3433 180.346 26.742C180.468 27.1407 180.514 27.4933 180.484 27.8C180.637 28.1067 180.974 28.444 181.496 28.812C182.017 29.1493 182.462 29.364 182.83 29.456C182.615 29.7627 182.216 30.0693 181.634 30.376C181.082 30.652 180.622 30.79 180.254 30.79C180.254 31.25 180.407 31.802 180.714 32.446C181.02 33.09 181.342 33.55 181.68 33.826C181.25 33.9487 180.683 33.9487 179.978 33.826C179.272 33.6727 178.736 33.4887 178.368 33.274C178.766 33.7647 179.073 34.4853 179.288 35.436C179.533 36.3867 179.594 37.1687 179.472 37.782C179.104 37.2607 178.506 36.7393 177.678 36.218C176.88 35.6967 176.16 35.4053 175.516 35.344C175.822 35.9267 176.022 36.6473 176.114 37.506C176.236 38.3953 176.221 39.162 176.068 39.806C175.884 39.162 175.516 38.4873 174.964 37.782C174.442 37.0767 173.89 36.5707 173.308 36.264C173.001 36.7853 172.802 37.46 172.71 38.288C172.618 39.1467 172.648 39.8673 172.802 40.45C172.28 40.1433 171.79 39.6067 171.33 38.84C170.87 38.104 170.624 37.4293 170.594 36.816C170.256 37.1533 169.965 37.6593 169.72 38.334C169.505 39.0393 169.428 39.6373 169.49 40.128C169.244 39.944 168.968 39.6527 168.662 39.254C168.386 38.886 167.987 38.4873 167.466 38.058C166.975 37.6287 166.3 37.2147 165.442 36.816ZM167.328 20.21C167.389 20.5167 167.542 20.8693 167.788 21.268C167.665 20.7773 167.512 20.4247 167.328 20.21ZM170.088 21.13C169.996 21.3447 169.812 21.5747 169.536 21.82C169.26 22.0653 168.984 22.2647 168.708 22.418C168.922 22.6327 169.03 22.7247 169.03 22.694C169.367 22.878 169.643 23.062 169.858 23.246C169.98 22.9393 170.057 22.5867 170.088 22.188C170.149 21.7893 170.149 21.4367 170.088 21.13ZM194.747 36.908C194.624 37.0613 194.486 37.368 194.333 37.828C194.18 38.288 194.026 38.794 193.873 39.346C193.72 39.9287 193.597 40.45 193.505 40.91C193.444 41.4007 193.428 41.738 193.459 41.922C193.398 41.738 193.336 41.4007 193.275 40.91C193.244 40.45 193.229 39.9287 193.229 39.346C193.229 38.7633 193.244 38.2267 193.275 37.736C193.306 37.2453 193.367 36.908 193.459 36.724C193.122 37 192.784 37.3987 192.447 37.92C192.14 38.472 191.941 38.9627 191.849 39.392C191.573 39.0547 191.404 38.564 191.343 37.92C191.282 37.276 191.328 36.7393 191.481 36.31C191.358 36.6473 191.098 37 190.699 37.368C190.331 37.7667 189.994 38.0427 189.687 38.196C189.84 37.8893 189.886 37.46 189.825 36.908C189.794 36.356 189.702 35.9267 189.549 35.62C189.058 35.7733 188.537 36.1107 187.985 36.632C187.464 37.1533 187.126 37.6747 186.973 38.196C186.881 37.6747 186.942 37.0767 187.157 36.402C187.372 35.6967 187.617 35.16 187.893 34.792C187.556 35.252 187.034 35.6507 186.329 35.988C185.654 36.2947 185.056 36.4787 184.535 36.54C184.995 36.2027 185.394 35.6813 185.731 34.976C186.068 34.24 186.237 33.5807 186.237 32.998C185.593 33.0287 184.872 33.2587 184.075 33.688C183.278 34.1173 182.695 34.608 182.327 35.16C182.756 34.332 183.416 33.6113 184.305 32.998C183.6 33.2127 183.017 33.274 182.557 33.182C183.017 33.0287 183.508 32.7527 184.029 32.354C184.581 31.9553 184.949 31.5413 185.133 31.112C184.765 30.836 184.213 30.606 183.477 30.422C182.772 30.2073 182.189 30.146 181.729 30.238C181.944 29.8393 182.312 29.3793 182.833 28.858C183.385 28.3367 183.876 28.0147 184.305 27.892C183.968 27.4627 183.4 27.11 182.603 26.834C181.836 26.558 181.177 26.42 180.625 26.42C180.993 25.9907 181.545 25.592 182.281 25.224C183.017 24.856 183.661 24.6567 184.213 24.626C183.784 24.1353 183.155 23.66 182.327 23.2C181.468 22.74 180.717 22.4793 180.073 22.418C180.564 21.9887 181.269 21.6207 182.189 21.314C183.109 21.0073 183.891 20.8847 184.535 20.946C184.32 20.4553 183.891 19.9647 183.247 19.474C182.634 18.9833 182.051 18.6613 181.499 18.508C181.99 18.2933 182.588 18.186 183.293 18.186C184.029 18.1553 184.658 18.232 185.179 18.416C184.903 18.2933 184.627 18.1093 184.351 17.864C184.075 17.588 183.891 17.312 183.799 17.036C184.014 17.2813 184.336 17.4653 184.765 17.588C185.194 17.7107 185.562 17.772 185.869 17.772C185.532 17.4653 185.179 17.036 184.811 16.484C184.474 15.9013 184.29 15.38 184.259 14.92C184.566 15.2573 185.041 15.5333 185.685 15.748C186.329 15.9627 186.881 16.07 187.341 16.07C187.433 15.5793 187.341 14.9967 187.065 14.322C186.789 13.6473 186.482 13.1107 186.145 12.712C186.636 12.8653 187.172 13.1567 187.755 13.586C188.338 14.0153 188.736 14.46 188.951 14.92C189.135 14.2453 189.12 13.448 188.905 12.528C188.721 11.608 188.414 10.8873 187.985 10.366C188.598 10.642 189.181 11.1633 189.733 11.93C190.285 12.6967 190.638 13.402 190.791 14.046C191.006 13.5247 191.052 12.8807 190.929 12.114C190.837 11.3473 190.653 10.7033 190.377 10.182C190.837 10.55 191.236 11.0713 191.573 11.746C191.941 12.4207 192.156 13.0493 192.217 13.632C192.493 13.4173 192.784 13.034 193.091 12.482C193.428 11.8993 193.597 11.4393 193.597 11.102C193.934 11.2247 194.333 11.516 194.793 11.976C195.253 12.4053 195.544 12.7887 195.667 13.126C195.636 12.6967 195.713 12.1753 195.897 11.562C196.081 10.9487 196.326 10.4887 196.633 10.182C196.633 10.6113 196.74 11.1173 196.955 11.7C197.17 12.2827 197.415 12.7427 197.691 13.08C197.599 12.62 197.66 12.0833 197.875 11.47C198.09 10.8567 198.335 10.366 198.611 9.998C198.458 10.458 198.442 11.01 198.565 11.654C198.718 12.2673 198.918 12.7733 199.163 13.172C199.562 12.988 199.96 12.6047 200.359 12.022C200.758 11.4087 201.018 10.8873 201.141 10.458C201.417 10.7953 201.647 11.3013 201.831 11.976C202.046 12.6507 202.138 13.2027 202.107 13.632C202.414 13.448 202.705 13.1413 202.981 12.712C203.257 12.252 203.41 11.8227 203.441 11.424C203.594 11.7613 203.656 12.1907 203.625 12.712C203.594 13.2333 203.502 13.6627 203.349 14C203.625 13.9387 203.947 13.77 204.315 13.494C204.683 13.1873 204.928 12.9113 205.051 12.666C205.204 12.9113 205.296 13.2793 205.327 13.77C205.358 14.23 205.312 14.5827 205.189 14.828C205.434 14.552 205.833 14.2913 206.385 14.046C206.968 13.8007 207.443 13.6933 207.811 13.724C207.596 14.0307 207.443 14.4907 207.351 15.104C207.29 15.6867 207.305 16.162 207.397 16.53C207.98 16.6833 208.7 16.6833 209.559 16.53C210.448 16.346 211.138 16.0853 211.629 15.748C211.568 16.3613 211.276 17.036 210.755 17.772C210.234 18.508 209.728 19.0293 209.237 19.336C209.758 19.5507 210.402 19.6273 211.169 19.566C211.966 19.474 212.595 19.2747 213.055 18.968C212.718 19.428 212.212 19.8727 211.537 20.302C210.893 20.7007 210.295 20.9 209.743 20.9C210.05 20.9 210.448 21.0073 210.939 21.222C211.43 21.406 211.782 21.6207 211.997 21.866C211.69 21.958 211.322 22.1573 210.893 22.464C210.494 22.7707 210.218 23.062 210.065 23.338C210.494 23.614 211.046 23.798 211.721 23.89C212.426 23.982 213.024 23.9513 213.515 23.798C213.178 24.0433 212.733 24.2273 212.181 24.35C212.856 24.4727 213.454 24.672 213.975 24.948C213.454 24.7333 212.794 24.7027 211.997 24.856C211.23 24.9787 210.586 25.178 210.065 25.454C210.28 25.7913 210.648 26.19 211.169 26.65C211.721 27.11 212.196 27.4013 212.595 27.524C212.319 27.8307 211.874 28.168 211.261 28.536C210.648 28.904 210.142 29.1033 209.743 29.134C210.142 29.1033 210.586 29.2107 211.077 29.456C211.568 29.6707 211.936 29.9313 212.181 30.238C211.844 30.0233 211.399 29.9007 210.847 29.87C210.326 29.8393 209.881 29.9007 209.513 30.054C209.544 30.3607 209.682 30.7747 209.927 31.296C210.172 31.8173 210.433 32.17 210.709 32.354C210.464 32.538 210.05 32.6913 209.467 32.814C208.884 32.906 208.44 32.9213 208.133 32.86C208.532 33.136 208.9 33.5807 209.237 34.194C209.605 34.7767 209.789 35.3133 209.789 35.804C209.482 35.436 209.022 35.0987 208.409 34.792C207.796 34.4547 207.244 34.3013 206.753 34.332C206.6 34.5467 206.446 34.9453 206.293 35.528C206.14 36.08 206.078 36.494 206.109 36.77C205.833 36.8313 205.419 36.77 204.867 36.586C204.315 36.3713 203.932 36.1873 203.717 36.034C203.625 36.218 203.564 36.5707 203.533 37.092C203.502 37.644 203.502 38.2267 203.533 38.84C203.564 39.484 203.594 40.0667 203.625 40.588C203.686 41.14 203.748 41.508 203.809 41.692C203.656 41.5387 203.395 41.186 203.027 40.634C202.69 40.082 202.352 39.484 202.015 38.84C201.708 38.196 201.478 37.6593 201.325 37.23C201.417 37.782 201.386 38.38 201.233 39.024C201.08 39.6987 200.896 40.266 200.681 40.726C200.742 40.1433 200.604 39.4687 200.267 38.702C199.96 37.9353 199.592 37.3373 199.163 36.908C199.163 37.2147 199.056 37.5673 198.841 37.966C198.657 38.3953 198.458 38.702 198.243 38.886C198.212 38.61 197.982 38.2573 197.553 37.828C197.124 37.4293 196.188 37.1227 194.747 36.908ZM197.921 30.468C197.982 30.192 197.952 29.87 197.829 29.502C197.737 29.1033 197.614 28.7813 197.461 28.536C197.737 28.5667 198.044 28.7047 198.381 28.95C198.749 29.1647 199.01 29.3793 199.163 29.594C199.01 29.318 198.749 29.042 198.381 28.766C198.013 28.4593 197.676 28.2907 197.369 28.26C197.645 28.1067 198.013 27.9993 198.473 27.938C198.933 27.846 199.301 27.8613 199.577 27.984C199.424 27.7693 199.178 27.5853 198.841 27.432C198.504 27.2787 198.212 27.1867 197.967 27.156C198.151 27.0027 198.412 26.88 198.749 26.788C199.117 26.6653 199.424 26.604 199.669 26.604C199.27 26.5733 198.933 26.42 198.657 26.144C198.81 26.144 198.994 26.098 199.209 26.006C199.424 25.914 199.592 25.8067 199.715 25.684C199.5 25.7147 199.255 25.684 198.979 25.592C198.703 25.5 198.488 25.3773 198.335 25.224C198.55 25.224 198.795 25.1933 199.071 25.132C199.347 25.04 199.562 24.9173 199.715 24.764C199.5 24.764 199.255 24.718 198.979 24.626C198.703 24.5033 198.504 24.3653 198.381 24.212C198.596 24.212 198.826 24.1507 199.071 24.028C199.347 23.9053 199.546 23.7673 199.669 23.614C199.546 23.4913 199.347 23.384 199.071 23.292C198.795 23.1693 198.565 23.108 198.381 23.108C198.504 22.9547 198.688 22.8167 198.933 22.694C199.209 22.5407 199.439 22.464 199.623 22.464C199.378 22.2493 199.01 22.1113 198.519 22.05C198.028 21.958 197.645 21.958 197.369 22.05C197.492 21.8047 197.752 21.544 198.151 21.268C197.967 21.2987 197.798 21.314 197.645 21.314C197.86 21.1607 198.044 20.9307 198.197 20.624C198.35 20.3173 198.427 20.0413 198.427 19.796C198.212 19.98 198.013 20.2253 197.829 20.532C197.645 20.808 197.507 21.1147 197.415 21.452C197.384 21.9427 197.292 22.3413 197.139 22.648C197.139 22.648 197.139 22.6173 197.139 22.556C197.078 22.372 197.016 22.1573 196.955 21.912C196.648 22.0347 196.265 22.1113 195.805 22.142C195.376 22.142 195.008 22.0653 194.701 21.912C194.885 22.1267 195.146 22.326 195.483 22.51C195.82 22.6633 196.127 22.74 196.403 22.74C196.004 23.016 195.544 23.1847 195.023 23.246C195.544 23.3073 195.943 23.4913 196.219 23.798C195.974 23.7367 195.682 23.752 195.345 23.844C195.038 23.936 194.778 24.0587 194.563 24.212C194.716 24.3653 194.931 24.5187 195.207 24.672C195.514 24.7947 195.774 24.856 195.989 24.856C195.866 25.04 195.652 25.1933 195.345 25.316C195.038 25.4387 194.778 25.5 194.563 25.5C194.808 25.4693 195.084 25.5 195.391 25.592C195.728 25.684 195.989 25.8067 196.173 25.96C195.59 25.8987 195.069 26.0673 194.609 26.466C194.916 26.4047 195.284 26.4353 195.713 26.558C196.173 26.6807 196.526 26.8647 196.771 27.11C196.434 27.0793 196.05 27.1713 195.621 27.386C195.222 27.57 194.916 27.7847 194.701 28.03C194.916 27.9687 195.192 27.984 195.529 28.076C195.897 28.1373 196.173 28.2447 196.357 28.398C196.142 28.4287 195.897 28.5667 195.621 28.812C195.345 29.0573 195.161 29.2873 195.069 29.502C195.192 29.3793 195.391 29.2873 195.667 29.226C195.943 29.134 196.142 29.1033 196.265 29.134C196.449 28.4593 196.71 27.9227 197.047 27.524C196.832 27.9227 196.771 28.4287 196.863 29.042C196.986 29.6247 197.338 30.1 197.921 30.468ZM195.069 20.67C195.222 20.946 195.498 21.2067 195.897 21.452C196.296 21.6667 196.648 21.8047 196.955 21.866C196.924 21.774 196.909 21.682 196.909 21.59C196.786 21.2527 196.633 20.9307 196.449 20.624C196.265 20.2867 196.05 20.026 195.805 19.842C195.866 20.118 195.989 20.44 196.173 20.808C196.388 21.1453 196.618 21.3753 196.863 21.498C196.587 21.498 196.25 21.4213 195.851 21.268C195.483 21.084 195.222 20.8847 195.069 20.67ZM196.219 30.422C196.158 30.238 196.142 30.054 196.173 29.87C196.142 30.1153 196.158 30.2993 196.219 30.422Z" fill="black"/>
</svg>
